<svg width="194" height="105" viewBox="0 0 194 105" fill="none" xmlns="http://www.w3.org/2000/svg">
<path d="M70.3088 42.8677L70.6126 43.128C70.6994 46.9462 70.6126 50.8078 70.656 54.6259L70.3088 54.6693C70.1786 50.721 70.1786 46.816 70.3088 42.8677Z" fill="#1D2226"/>
<path d="M79.3794 42.9543L79.77 42.9977C79.7266 46.8159 79.8134 50.6775 79.7266 54.4957L79.4228 54.756C79.2926 50.8077 79.3794 46.9027 79.3794 42.9543Z" fill="#1D2226"/>
<path d="M144.48 42.9543L144.871 42.9977C144.827 46.8593 144.827 50.7643 144.871 54.6258L144.523 54.6692C144.437 50.7643 144.48 46.8593 144.48 42.9543Z" fill="#1D2226"/>
<path d="M83.4157 44.2126L83.7629 44.5164C83.8063 47.38 83.8497 50.2436 83.7195 53.1507C83.6327 53.2374 83.5025 53.3676 83.4157 53.4544C83.2421 50.3738 83.1987 47.2498 83.4157 44.2126Z" fill="#1D2226"/>
<path d="M37.1074 45.2974L37.5414 44.9937C37.1508 46.9027 36.8904 48.8118 36.2828 50.6775L35.979 50.9379C36.3262 49.0288 36.7602 47.1631 37.1074 45.2974Z" fill="#1D2226"/>
<path d="M74.2149 46.4254C74.3017 46.2519 74.5187 45.9048 74.6055 45.7312C74.6055 45.9048 74.6055 46.2085 74.6489 46.382C74.5187 49.1155 74.8225 51.849 74.6923 54.5824L74.1715 54.6258C74.2149 51.9357 74.0413 49.1589 74.2149 46.4254Z" fill="#1D2226"/>
<path d="M88.2765 45.9917L88.5369 45.688C88.6237 47.814 88.6237 49.8967 88.4935 52.0227L88.2765 51.6756C87.9293 49.7665 87.9293 47.8574 88.2765 45.9917Z" fill="#1D2226"/>
<path d="M148.516 46.3389C148.56 46.7294 148.646 47.1632 148.69 47.5537C148.82 49.8533 148.82 52.1529 148.733 54.4525L148.473 54.7128C148.343 51.936 148.256 49.1157 148.516 46.3389Z" fill="#1D2226"/>
<path d="M187.143 98.6652C187.056 98.6652 186.969 98.6652 186.926 98.6652C187.837 97.1466 189.009 95.6281 188.748 93.7623C188.748 64.9958 188.748 36.1859 188.748 7.41937C188.922 4.42557 186.101 2.0392 183.193 2.21276C124.125 2.12598 65.1006 2.12598 6.07598 2.16937C3.21155 1.99582 0.347122 4.38218 0.520724 7.37598C0.477323 35.1446 0.520724 62.9566 0.520724 90.7252C0.520724 92.3305 0.433923 93.8925 0.607525 95.4979C1.17173 97.7107 3.25495 99.6198 5.64198 99.3595C61.9324 99.3595 118.179 99.3595 174.47 99.3595C178.549 99.4462 182.629 99.3161 186.709 99.2293C186.795 98.969 186.926 98.7954 187.143 98.6652ZM60.7605 5.20656C101.687 5.20656 142.614 5.20656 183.584 5.20656C184.756 5.11978 185.841 6.1611 185.754 7.37598C185.797 16.1838 185.754 25.0351 185.754 33.8429C144.089 33.8429 102.425 33.8429 60.7605 33.8429C60.7605 24.2975 60.7605 14.752 60.7605 5.20656ZM185.754 35.5785V63.3471H3.47195V35.5785H185.754ZM5.59858 5.20656C23.4362 5.20656 41.2303 5.20656 59.0245 5.20656V33.8429C40.4925 33.8429 22.0039 33.8429 3.47195 33.8429C3.47195 24.9917 3.47195 16.1838 3.47195 7.33259C3.42855 6.1611 4.47016 5.11978 5.59858 5.20656ZM6.07598 96.3223C4.77397 96.5392 3.38515 95.5413 3.51535 94.1528C3.47195 84.4772 3.51535 74.7582 3.51535 65.0826C36.9337 65.0826 70.3521 65.0826 103.77 65.0826C103.77 75.4958 103.77 85.909 103.77 96.3223C71.1767 96.3223 38.6263 96.3223 6.07598 96.3223ZM183.15 96.3223C157.24 96.3223 131.33 96.3223 105.463 96.3223C105.463 85.909 105.463 75.4958 105.463 65.0826C132.241 65.0826 158.976 65.0826 185.754 65.0826C185.754 74.8016 185.797 84.5206 185.754 94.1962C185.797 95.5847 184.452 96.5392 183.15 96.3223Z" fill="black"/>
<path d="M19.5736 13.1031C21.8304 9.37167 26.6045 7.28902 30.8577 8.63406C32.7239 8.98117 34.1561 10.2828 35.6318 11.3675C36.8904 11.4109 38.2358 11.5411 39.3642 12.2353C42.272 13.8841 42.9664 18.1795 40.9266 20.7828C40.2322 21.9109 38.8434 22.2146 37.8018 22.9522C37.6282 24.5576 38.0622 26.2064 38.1924 27.8117C38.9736 28.0721 40.319 28.4626 39.5812 29.5473C38.4528 30.0246 37.281 29.1134 36.1092 29.0266C30.4671 28.0721 24.6949 29.3303 19.4868 31.5432C18.9226 31.8469 18.098 31.4564 18.0546 30.8056C18.2716 30.2415 18.8792 29.9812 19.3566 29.5907C19.183 27.9853 19.0528 26.3365 18.8358 24.7312C15.711 24.4708 13.0635 21.3469 13.5843 18.1795C13.8013 15.1857 16.6224 12.9729 19.5736 13.1031ZM26.0837 10.2394C23.089 10.977 20.702 13.4502 20.051 16.444C19.9642 16.9213 19.5302 18.006 18.8792 17.5721C17.7508 16.9646 18.6622 15.7064 18.6622 14.7518C16.362 15.0556 14.843 17.3117 15.0166 19.5679C15.5374 21.2167 16.796 22.7353 18.6188 22.8655C19.9208 23.1258 20.919 22.2146 22.0474 21.7808C22.6984 21.7374 23.1324 22.3882 22.9154 22.9956C22.221 23.6898 21.353 24.2973 20.3548 24.3841C20.5284 25.946 20.702 27.4646 20.7888 29.0266C25.6931 27.0741 31.1181 26.5969 36.3262 27.3779C36.0658 24.9047 35.8488 22.4316 35.5884 19.9584C33.1145 19.7849 30.7709 20.6093 28.4707 21.4337C28.3839 21.1733 28.1669 20.6527 28.0801 20.3489C30.7709 18.8737 34.243 17.8324 37.2376 19.0473C37.281 19.7415 37.3678 20.3923 37.4546 21.0865C38.8434 20.5659 40.102 19.351 40.2756 17.789C40.753 15.2291 38.2358 12.5824 35.6318 13.2766C34.2429 13.4502 33.3315 14.5783 32.5937 15.663C32.2465 16.4006 31.2483 15.8365 31.1181 15.2725C31.4653 13.8841 32.5937 12.8861 33.7655 12.0618C31.6389 10.413 28.7745 9.45844 26.0837 10.2394Z" fill="black"/>
<path d="M161.493 10.8471C161.623 10.7603 161.927 10.5868 162.057 10.5C162.404 12.062 162.231 13.6674 162.231 15.2727C162.274 16.4008 160.755 16.7913 160.668 17.876C160.581 20.8698 160.668 23.907 160.625 26.9008C160.495 27.6384 160.972 28.7665 160.017 29.157C159.496 25.5992 159.93 21.9112 159.8 18.2665C159.627 17.0517 160.625 16.3574 161.319 15.5331C161.623 13.9711 161.319 12.4091 161.493 10.8471Z" fill="black"/>
<path d="M156.719 10.8037C156.893 10.8037 157.283 10.8037 157.5 10.8037C157.63 12.4959 157.327 14.188 157.717 15.7934C158.672 16.2273 159.236 17.1818 159.193 18.1797C159.193 21.6508 159.236 25.1219 159.149 28.593L158.889 28.8967L158.412 28.7231C158.281 25.2087 158.412 21.6942 158.368 18.1797C158.585 16.8347 156.719 16.4876 156.762 15.1859C156.632 13.7541 156.676 12.2789 156.719 10.8037Z" fill="black"/>
<path d="M158.238 12.1487C158.281 11.6714 157.978 10.3698 158.932 10.7603C159.019 12.3657 159.323 14.1446 158.715 15.6632C157.804 14.7086 158.412 13.3202 158.238 12.1487Z" fill="black"/>
<path d="M159.844 15.533C159.931 13.9276 159.453 12.1053 160.061 10.6301L160.625 10.8037C160.668 12.2789 160.668 13.7975 160.625 15.2727C160.451 15.3161 160.061 15.4462 159.844 15.533Z" fill="black"/>
<path d="M163.924 14.8823C162.839 14.4484 163.055 13.1901 162.969 12.2356C163.62 12.9732 164.271 13.6674 164.922 14.3616C167.005 14.8389 168.915 13.4071 170.954 13.6674C171.519 13.7108 171.649 14.2749 171.779 14.7087C171.085 16.4009 169.696 17.7459 169.218 19.5249C169.435 21.5207 171.215 22.8658 171.822 24.6881C171.822 25.3389 171.258 25.8596 170.607 25.7728C168.828 25.5992 167.135 24.8182 165.312 24.9918C163.533 25.8162 162.795 27.8554 161.319 28.9835C160.972 27.0311 162.665 25.7728 163.837 24.5145C165.833 22.8224 168.394 24.3844 170.607 24.5579C169.783 22.9959 168.437 21.6509 168.133 19.9153C168.047 17.8327 169.913 16.4443 170.52 14.5786C168.394 14.9257 165.92 16.4009 163.924 14.8823Z" fill="black"/>
<path d="M153.811 19.1776C154.896 18.3533 156.285 17.876 157.63 17.5723C157.891 19.1776 155.851 19.1342 154.853 19.6983C155.721 20.219 156.676 20.4359 157.587 20.783C157.587 21.1301 157.544 21.7809 157.544 22.0847C156.242 21.4338 154.332 21.3904 153.681 19.9152C153.681 19.7417 153.768 19.3512 153.811 19.1776Z" fill="black"/>
<path d="M27.1685 42.9546C29.1216 42.9546 31.0746 42.9546 33.071 42.9546C32.1162 46.5558 29.9462 49.6364 28.8177 53.1943C30.25 53.1943 31.6822 53.2377 33.071 53.1943C33.071 53.5848 33.071 54.3224 33.071 54.7129C31.0746 54.7129 29.0782 54.7129 27.0383 54.7129C27.1685 53.9319 27.2987 53.1509 27.6459 52.4567C28.8611 49.81 30.1198 47.1633 31.2482 44.4732L30.901 44.5166C29.6424 44.56 28.3837 44.5166 27.1251 44.5166C27.1685 44.0827 27.1685 43.3451 27.1685 42.9546Z" fill="black"/>
<path d="M36.8903 42.8677C37.4111 42.9545 37.8885 42.9978 38.4093 43.0412C39.2773 46.9462 40.319 50.8078 41.2304 54.6693C40.6662 54.6693 40.1454 54.6259 39.5812 54.6259C39.4075 53.8016 39.2339 52.9772 39.0603 52.1962C38.0187 52.1962 36.9337 52.1962 35.8921 52.2396C35.7619 53.0206 35.5883 53.8449 35.4581 54.6259C34.9373 54.6693 34.3731 54.7127 33.8523 54.7561C35.0241 50.8078 35.8487 46.816 36.8903 42.8677ZM37.1073 45.2974C36.7601 47.1631 36.3261 49.0288 35.9355 50.9379L36.2393 50.6776C37.0639 50.7644 37.8885 50.7644 38.6697 50.8511C38.9735 50.0268 38.4527 49.2024 38.3225 48.378C38.0621 47.4668 38.1923 46.3387 37.5413 45.5578C37.5413 45.4276 37.4979 45.1239 37.4979 44.9937L37.1073 45.2974Z" fill="black"/>
<path d="M40.8831 42.9546C41.3171 42.9546 42.1417 42.998 42.5323 43.0414C43.1833 44.9071 43.6173 46.9029 44.5287 48.6819C45.1363 46.8162 45.7005 44.9071 46.3949 43.0414C46.7855 43.0414 47.5667 42.998 47.9573 42.9546L47.8705 43.1281C47.2629 44.0827 47.0459 45.2108 46.6987 46.2521C46.2647 47.5972 45.5703 48.8988 45.3967 50.3306C45.1363 51.8058 45.3099 53.281 45.2665 54.7562C44.7457 54.7129 44.1815 54.6695 43.6607 54.6695C43.6607 52.9773 44.0079 51.2418 43.2701 49.6364C42.4455 47.3802 41.7077 45.1674 40.8831 42.9546Z" fill="black"/>
<path d="M49.3896 42.9545C49.7802 42.9545 50.5614 42.9545 50.952 42.9545C50.952 44.6032 50.9086 46.2086 50.952 47.814L51.169 47.6404C52.5578 46.3387 53.2522 44.473 54.2938 42.8677C54.6844 42.9111 55.5091 43.0412 55.9431 43.0846C54.641 44.6466 53.7296 46.4255 52.6446 48.1177C53.9032 50.2871 55.1185 52.4999 56.4205 54.6693C55.9865 54.6693 55.0751 54.6693 54.641 54.6693C53.9466 53.3677 53.1654 52.1528 52.6012 50.8078C52.4276 50.3305 52.254 49.8966 52.037 49.4193C51.6464 49.5929 51.2558 49.8098 50.8652 49.9834C50.735 51.5454 50.735 53.1073 50.9086 54.6693C50.518 54.6693 49.7368 54.6693 49.3462 54.6693C49.3896 50.7644 49.3896 46.8594 49.3896 42.9545Z" fill="black"/>
<path d="M59.5019 43.0412C59.9359 42.9978 60.8473 42.9111 61.3248 42.8677V43.0846C61.1077 44.4297 61.7154 45.6445 62.0626 46.9028C62.757 49.4193 63.191 52.0226 63.9722 54.5392L64.059 54.7561C62.0192 55.4503 62.3664 53.3677 61.9758 52.1962C60.9341 52.1962 59.8925 52.1962 58.8509 52.1962C58.6773 53.0206 58.5037 53.8449 58.3301 54.7127C57.8961 54.7127 57.0715 54.7127 56.6809 54.7127C57.5923 50.8078 58.5471 46.9028 59.5019 43.0412ZM59.1547 50.7644C59.9359 50.7644 60.7605 50.7644 61.5418 50.7644C61.1511 48.8987 60.7171 46.9896 60.3699 45.1239C59.8491 46.9462 59.6321 48.8987 59.1547 50.7644Z" fill="black"/>
<path d="M69.2671 42.9545C69.5275 42.9545 70.0483 42.9111 70.3087 42.8677C70.1785 46.816 70.1785 50.721 70.3087 54.6693C70.0483 54.6693 69.5275 54.6693 69.2671 54.6693C69.2671 50.7644 69.2671 46.8594 69.2671 42.9545Z" fill="black"/>
<path d="M73.3032 42.9546C73.6504 42.9546 74.3014 42.998 74.6486 43.0414C75.6902 45.6013 76.8621 48.1178 77.9037 50.6777C77.9905 50.6777 78.2075 50.591 78.2943 50.591C78.1207 48.0744 78.1641 45.5145 78.1641 42.998C78.4679 42.998 79.0755 42.9546 79.3793 42.9546C79.3359 46.9029 79.2925 50.8079 79.4227 54.7562C79.0755 54.7129 78.4245 54.6261 78.1207 54.5827C76.9923 51.8492 75.6902 49.1591 74.6486 46.4257C74.6486 46.2521 74.6486 45.9484 74.6052 45.7748C74.5184 45.9484 74.3014 46.2955 74.2146 46.4691C74.041 49.2025 74.2146 51.936 74.1712 54.7129C73.9542 54.7129 73.5202 54.7129 73.3032 54.7129C73.3032 50.7645 73.3032 46.8596 73.3032 42.9546Z" fill="black"/>
<path d="M82.157 42.998C83.8062 42.998 85.5856 42.6943 87.1046 43.5621C87.8424 44.0827 88.5369 44.9939 88.2765 45.9484C87.9292 47.8141 87.9292 49.7232 88.2765 51.6323C88.5369 52.5869 87.8858 53.5414 87.1046 54.0621C85.629 54.9732 83.8062 54.6261 82.157 54.6261C82.2004 50.7646 82.2004 46.8596 82.157 42.998ZM83.4156 44.2129C83.1986 47.2935 83.242 50.3741 83.4156 53.4546C83.5024 53.3679 83.6326 53.2377 83.7194 53.1509C84.6742 53.2377 85.6724 53.2377 86.497 52.6737C87.2782 52.0228 87.148 50.8947 87.1914 49.9402C87.148 48.5951 87.2782 47.2501 87.0612 45.9051C86.931 45.1241 86.2366 44.56 85.4554 44.4732C84.8912 44.4732 84.327 44.4732 83.7628 44.5166L83.4156 44.2129Z" fill="black"/>
<path d="M90.5332 42.9546C90.9238 42.9546 91.705 42.9546 92.0956 42.9546C92.0956 46.8595 92.0956 50.7645 92.0956 54.6695C91.705 54.6695 90.9238 54.6695 90.5332 54.6695C90.5332 50.7645 90.5332 46.8595 90.5332 42.9546Z" fill="black"/>
<path d="M96.4356 42.9111C96.8262 42.9111 97.6074 42.9111 97.998 42.9111C98.6924 46.8595 99.8208 50.6777 100.776 54.5826C100.428 54.626 99.6906 54.6694 99.3434 54.7128C99.1698 53.845 98.9528 53.0206 98.7792 52.1963C97.7376 52.1963 96.696 52.1963 95.6544 52.1963C95.4374 53.0206 95.2638 53.845 95.1336 54.7128C94.743 54.7128 94.0052 54.6694 93.658 54.626C94.5694 50.7211 95.6978 46.8595 96.4356 42.9111ZM97.13 45.1239C96.7828 46.9896 96.3922 48.8987 95.9582 50.7644C96.7828 50.7644 97.564 50.7644 98.3886 50.7644C97.9112 48.8987 97.6942 46.9463 97.13 45.1239Z" fill="black"/>
<path d="M102.338 42.9546C102.729 42.998 103.467 43.0414 103.857 43.0848C105.116 45.8616 106.201 48.7253 107.459 51.5021C107.459 51.3719 107.503 51.155 107.503 51.0248C107.59 48.3348 107.416 45.6447 107.503 42.9546C107.893 42.9546 108.675 42.9546 109.065 42.9546C109.065 46.8596 109.065 50.7645 109.065 54.6695C108.718 54.6695 108.024 54.7129 107.676 54.7562C106.461 51.8058 105.159 48.8554 103.901 45.905C103.901 46.0352 103.901 46.3389 103.901 46.4691C103.944 49.2025 103.987 51.936 103.944 54.6695C103.553 54.6695 102.772 54.6695 102.382 54.6695C102.338 50.7645 102.338 46.8596 102.338 42.9546Z" fill="black"/>
<path d="M117.702 42.9111C119.698 42.8243 121.304 44.4297 121.304 46.4255C120.914 46.4255 120.132 46.4255 119.785 46.4255C119.612 45.6879 119.395 44.7334 118.483 44.5598C117.268 44.0392 116.009 45.2107 116.183 46.4689C116.226 48.3346 116.009 50.2437 116.313 52.066C116.877 53.9751 119.959 53.1941 119.785 51.285C120.176 51.285 121 51.2417 121.391 51.1983C121.391 53.1941 119.698 54.7995 117.702 54.7127C116.443 54.3222 115.011 53.5846 114.968 52.066C114.751 49.7664 114.707 47.4235 115.055 45.1673C115.228 43.8222 116.574 43.345 117.702 42.9111Z" fill="black"/>
<path d="M123.084 42.9545C123.431 42.9545 124.169 42.9545 124.516 42.9979C124.559 45.9049 124.386 48.812 124.603 51.6756C124.646 53.4111 127.597 53.5847 127.901 51.8925C128.118 48.9421 127.945 45.9483 127.988 42.9979C128.379 42.9979 129.16 42.9545 129.55 42.9111L129.507 43.1281C129.247 45.9483 129.55 48.812 129.377 51.6322C129.333 52.6301 128.682 53.4545 128.075 54.1921C127.294 54.5826 126.382 54.7996 125.514 54.626C124.386 53.9752 123.214 53.0206 123.214 51.5888C122.953 48.7252 123.127 45.8182 123.084 42.9545Z" fill="black"/>
<path d="M131.764 42.9546C132.154 42.9546 132.935 42.9546 133.326 42.9546C133.326 46.8595 133.326 50.7645 133.326 54.6695C132.935 54.6695 132.154 54.6695 131.764 54.6695C131.764 50.7645 131.764 46.8595 131.764 42.9546Z" fill="black"/>
<path d="M136.408 43.5619C138.361 42.1301 141.572 43.4751 141.442 46.0351C141.095 46.0351 140.444 45.9917 140.097 45.9917C139.663 45.5144 139.576 44.7334 138.881 44.5599C138.144 44.2128 136.885 44.6466 136.842 45.5578C136.581 47.033 138.317 47.5971 139.315 48.2479C140.4 48.7685 140.834 49.94 141.355 50.8946C141.789 52.0661 140.921 53.1508 140.27 54.1053C138.187 55.4937 134.845 54.1053 135.019 51.3718C135.496 51.3718 135.974 51.3718 136.451 51.3718C136.625 52.8471 138.1 53.2809 139.402 52.9338C140.27 52.5433 140.227 51.5888 140.27 50.7644C139.315 49.8533 138.23 49.0723 137.059 48.5516C135.106 47.7706 134.541 44.7768 136.408 43.5619Z" fill="black"/>
<path d="M143.482 42.9546C143.742 42.9546 144.263 42.9546 144.523 42.9546C144.48 46.8595 144.436 50.7645 144.523 54.6695C144.263 54.6695 143.742 54.6695 143.482 54.6695C143.482 50.7645 143.438 46.8595 143.482 42.9546Z" fill="black"/>
<path d="M147.388 42.9111C147.778 42.9978 148.56 43.1714 148.95 43.2148L148.994 43.4751C149.471 45.7313 150.773 47.7272 151.468 49.94C151.641 50.6342 152.162 51.1549 152.553 51.6755C152.596 51.1549 152.683 50.5908 152.813 50.0702L152.422 50.3739C152.292 47.9007 152.249 45.4276 152.249 42.9545C152.639 42.9111 153.464 42.8677 153.855 42.8677C153.941 46.7726 153.811 50.6776 153.898 54.5392C153.377 54.5825 152.9 54.6259 152.379 54.6259C151.728 52.4565 150.6 50.504 149.818 48.4214C149.471 47.4668 149.124 46.5123 148.516 45.7313L148.473 46.252C148.212 49.0288 148.343 51.8491 148.429 54.6693C148.169 54.6259 147.605 54.5825 147.344 54.5825C147.388 50.721 147.344 46.816 147.388 42.9111Z" fill="black"/>
<path d="M156.502 42.9546C158.151 42.9546 159.844 42.9546 161.493 42.9546C161.493 43.3017 161.45 43.9959 161.406 44.343C160.191 44.343 158.976 44.2996 157.804 44.4298C157.847 45.6447 157.847 46.9029 157.847 48.1612C159.106 48.1612 160.321 48.1612 161.58 48.1612C161.58 48.5083 161.58 49.2025 161.58 49.593C160.321 49.5496 159.063 49.593 157.804 49.6798C157.847 50.8513 157.847 52.0228 157.804 53.2377C159.193 53.3244 160.582 53.3244 162.014 53.3244C162.014 53.6715 162.014 54.3658 162.014 54.7562C160.191 54.7562 158.368 54.7562 156.545 54.7562C156.458 50.7645 156.458 46.8596 156.502 42.9546Z" fill="black"/>
<path d="M3.47211 7.33267C3.38531 6.20457 4.42692 5.16324 5.59873 5.20663C23.4363 5.20663 41.2305 5.20663 59.0247 5.20663C59.0247 14.7521 59.0247 24.2975 59.0247 33.843C40.4927 33.843 22.0041 33.843 3.47211 33.843C3.47211 24.9918 3.47211 16.1839 3.47211 7.33267ZM46.5688 7.89672C45.3969 8.63432 44.3119 9.4587 43.2703 10.3699C42.8797 10.8471 43.1401 11.4112 43.7911 11.4546C45.0063 10.717 46.1347 9.89258 47.1764 8.93804C47.8274 8.50415 47.2632 7.54961 46.5688 7.89672ZM19.5737 13.1033C16.6658 12.9732 13.8014 15.186 13.4976 18.1364C12.9334 21.3037 15.5808 24.4277 18.7491 24.688C18.9661 26.2934 19.0963 27.9422 19.2699 29.5475C18.8359 29.938 18.2283 30.1984 17.9679 30.7624C18.0113 31.4132 18.8793 31.8037 19.4001 31.5C24.6081 29.3306 30.3804 28.0289 36.0224 28.9835C37.1943 29.1137 38.3661 29.9814 39.4945 29.5042C40.2323 28.4194 38.8869 28.0289 38.1057 27.7686C37.9755 26.1632 37.5415 24.5579 37.7151 22.9091C38.7567 22.1715 40.1455 21.9112 40.8399 20.7397C42.9231 18.1364 42.1853 13.8409 39.2775 12.1922C38.1491 11.4546 36.8471 11.3678 35.545 11.3244C34.0694 10.2397 32.6372 8.93804 30.771 8.59093C26.6045 7.33266 21.8305 9.37192 19.5737 13.1033ZM47.9142 12.4091C46.8726 12.7562 45.7875 12.9732 44.7893 13.4938C44.1383 13.7542 44.4421 14.8823 45.1365 14.8823C46.482 14.7087 47.7406 14.2314 48.9992 13.7975C49.5634 13.6674 50.3012 12.9732 49.6502 12.4525C49.1728 11.8885 48.4784 12.2789 47.9142 12.4091ZM8.37636 22.3451C7.76875 22.5186 7.11774 22.7356 6.55354 23.0393C6.37994 23.7335 6.64034 24.0806 7.37815 24.0806C8.54996 23.8203 9.72177 23.4298 10.8502 22.9959C11.5446 21.2604 9.20097 22.1281 8.37636 22.3451ZM9.28777 27.9422C8.81036 28.5062 8.89716 28.9401 9.54817 29.3306C10.937 28.593 12.1088 27.5517 13.3674 26.6405C13.1938 26.25 13.1938 25.5558 12.5862 25.6426C11.4144 26.3368 10.3728 27.2046 9.28777 27.9422Z" fill="#A74F46"/>
<path d="M60.7607 5.20672C101.687 5.20672 142.614 5.20672 183.584 5.20672C184.756 5.11995 185.841 6.16127 185.754 7.37614C185.797 16.184 185.754 25.0352 185.754 33.8431C144.09 33.8431 102.425 33.8431 60.7607 33.8431C60.7607 24.2976 60.7607 14.7522 60.7607 5.20672ZM156.806 10.0662C156.589 10.1964 156.198 10.5001 156.025 10.6303C156.155 12.6261 155.287 14.9691 156.589 16.7047C155.678 17.5724 154.376 17.7026 153.421 18.3968C152.336 19.308 152.813 21.2171 154.115 21.6509C155.244 22.1716 156.415 22.5621 157.587 22.9526C157.717 25.0352 157.37 27.2047 157.804 29.2873C158.759 29.8513 160.061 29.4609 161.146 29.8947C163.359 29.3741 163.967 26.5972 165.92 25.6861C167.656 25.6427 169.305 26.5538 171.041 26.5104C172.43 26.5538 173.211 24.8617 172.517 23.777C171.866 22.3018 170.477 21.0869 170.217 19.4381C170.824 17.8761 171.996 16.6613 172.647 15.1427C173.038 14.2315 172.517 13.3204 171.779 12.7997C169.652 12.1489 167.613 13.9278 165.486 13.4505C164.314 12.5828 163.576 11.2811 162.665 10.1964C160.799 8.85135 158.716 10.5869 156.806 10.0662ZM74.3885 15.7067C74.4753 18.5704 74.4319 21.3906 74.3885 24.2542C74.6923 24.2976 75.3433 24.341 75.6471 24.341C75.6471 23.1695 75.6471 22.0414 75.6905 20.8699C77.1661 21.2604 77.3831 23.1261 78.2077 24.2542C78.5549 24.2542 79.2927 24.2976 79.6399 24.341C79.0323 23.2129 78.3813 22.0848 77.7303 21.0001C79.5097 20.2625 79.8569 17.8328 78.7719 16.3575C77.6001 15.1427 75.8207 15.7067 74.3885 15.7067ZM80.8985 15.7067C80.9853 18.5704 80.9853 21.3906 80.8985 24.2542C82.4176 24.341 83.9366 24.341 85.4556 24.341C85.4122 24.0807 85.3688 23.6034 85.3254 23.3431C84.2838 23.2997 83.1988 23.3431 82.1572 23.3431C82.1572 22.3885 82.1572 21.434 82.1138 20.4794C83.112 20.4361 84.1102 20.4361 85.065 20.3927C85.282 18.7439 83.112 19.6117 82.1138 19.4381C82.1138 18.527 82.1138 17.6158 82.1138 16.7047C83.1554 16.7047 84.2404 16.7047 85.282 16.7047C85.2386 16.4443 85.1952 15.9671 85.1952 15.7067C83.763 15.5766 82.3308 15.6199 80.8985 15.7067ZM86.9312 17.2687C86.801 19.3513 86.6708 21.4774 87.1482 23.5166C88.1898 24.341 89.622 24.558 90.8373 23.9939C91.6185 23.4732 91.7921 22.5621 92.0091 21.7377C91.7053 21.7377 91.1411 21.7377 90.8807 21.6943C90.8807 23.1695 88.7974 23.9071 88.103 22.4753C87.9294 20.9133 88.0162 19.3513 88.0596 17.746C88.0162 16.4877 90.1862 16.0538 90.5335 17.3121C90.7071 17.9629 91.1845 18.2666 91.9223 18.2233C91.8355 17.2687 91.5751 16.184 90.6203 15.7067C89.2748 15.2728 87.1048 15.6199 86.9312 17.2687ZM94.7433 15.7501C93.5281 16.1406 93.1375 17.4856 93.2243 18.6571C93.3111 20.089 92.9639 21.6075 93.5281 22.996C94.3961 25.0352 98.0851 24.7315 98.4323 22.4753C98.5625 20.7832 98.6059 19.091 98.3889 17.3989C97.9983 15.7935 96.1321 15.2728 94.7433 15.7501ZM100.342 15.6199C100.385 18.4836 100.385 21.3906 100.342 24.2542C100.646 24.2542 101.21 24.2542 101.514 24.2542C101.557 22.3885 101.297 20.4794 101.774 18.6571C102.035 19.9588 102.555 21.1737 102.989 22.4319C103.293 22.4319 103.944 22.4753 104.248 22.5187C104.812 21.0869 105.333 19.6551 105.767 18.1799C105.81 20.2191 105.81 22.215 105.81 24.2542C106.071 24.2542 106.635 24.2542 106.939 24.2542C106.939 21.3472 106.939 18.4402 106.939 15.5332C106.288 15.4898 105.507 15.5332 105.42 16.3575C104.812 17.8761 104.248 19.3947 103.64 20.8699C102.946 19.1344 102.295 17.3555 101.557 15.6199C101.21 15.6199 100.646 15.6199 100.342 15.6199ZM109.022 15.6199C109.065 18.527 109.022 21.3906 109.022 24.2976C109.326 24.2976 109.89 24.2542 110.194 24.2542C110.194 22.3885 109.977 20.5228 110.411 18.6571C110.715 19.9588 111.235 21.2171 111.669 22.4753C111.973 22.4753 112.624 22.5187 112.928 22.5621C113.492 21.1303 114.013 19.6985 114.49 18.2233C114.49 20.2625 114.49 22.2584 114.49 24.2976C114.751 24.2976 115.315 24.2976 115.619 24.2976C115.619 21.3906 115.619 18.4836 115.619 15.5766C115.315 15.6199 114.664 15.7501 114.36 15.7935C113.622 17.4856 113.102 19.2646 112.234 20.9133C111.713 19.091 110.932 17.3989 110.237 15.6633C109.933 15.6633 109.326 15.6199 109.022 15.6199ZM117.659 15.6199C117.659 18.4836 117.659 21.3906 117.659 24.2976C119.134 24.2976 120.653 24.2976 122.129 24.2976C122.216 22.4753 119.872 23.56 118.787 23.2563C118.787 22.3018 118.787 21.3472 118.787 20.3927C119.785 20.4361 120.827 20.3493 121.825 20.2625C121.782 20.0456 121.652 19.6117 121.565 19.3513C120.61 19.3513 119.699 19.3513 118.744 19.308C118.744 18.3968 118.744 17.4856 118.744 16.6179C119.742 16.6179 120.74 16.6179 121.738 16.6613C121.782 16.4009 121.869 15.8803 121.912 15.6199C120.523 15.6199 119.091 15.6199 117.659 15.6199ZM123.735 15.6199C123.735 18.527 123.735 21.434 123.735 24.2976C124.039 24.2976 124.646 24.2976 124.95 24.2976C124.993 22.4319 124.733 20.5228 125.167 18.6571C125.861 20.6096 126.86 22.3885 127.641 24.2976C127.945 24.2976 128.552 24.341 128.856 24.341C128.856 21.434 128.856 18.5704 128.856 15.6633C128.552 15.6633 127.988 15.6633 127.684 15.6633C127.641 17.529 127.945 19.4381 127.467 21.2604C126.729 19.3513 125.775 17.5724 124.993 15.7067C124.646 15.6633 124.039 15.6199 123.735 15.6199ZM130.809 15.7067C130.896 18.527 130.896 21.3906 130.809 24.2109C131.894 24.2976 133.022 24.3844 134.151 24.2109C135.236 23.9071 135.887 22.779 135.8 21.6943C135.713 20.089 136.061 18.4402 135.54 16.8782C134.672 15.0559 132.371 15.6633 130.809 15.7067ZM137.623 15.6199C137.623 18.527 137.623 21.3906 137.623 24.2976C139.099 24.2976 140.618 24.2976 142.093 24.2976C142.18 22.4753 139.836 23.56 138.795 23.2563C138.795 22.3018 138.795 21.3472 138.795 20.3927C139.836 20.4361 140.835 20.3493 141.833 20.2625C141.789 20.0456 141.659 19.6117 141.572 19.3947C140.618 19.3513 139.706 19.3513 138.751 19.3513C138.751 18.4402 138.751 17.5724 138.751 16.6613C139.75 16.6613 140.748 16.6613 141.746 16.6613C141.789 16.4009 141.833 15.8803 141.876 15.6199C140.487 15.6199 139.055 15.6199 137.623 15.6199ZM143.699 15.6199C143.699 18.4836 143.699 21.3906 143.699 24.2976C145.261 24.2109 147.562 24.8617 148.299 22.996C148.777 21.1737 148.56 19.2212 148.43 17.3555C147.952 15.1427 145.392 15.6199 143.699 15.6199Z" fill="#A74F46"/>
<path d="M75.647 16.5744C76.5584 16.5744 77.9472 16.531 78.1208 17.7893C78.5982 19.3079 76.9924 20.3058 75.647 19.9587C75.647 18.8306 75.647 17.7025 75.647 16.5744Z" fill="#A74F46"/>
<path d="M95.264 16.7481C96.0886 16.401 97.1302 16.8782 97.2604 17.7894C97.3472 19.2212 97.3472 20.6964 97.2604 22.1282C97.0868 23.4299 95.0904 23.6902 94.613 22.5187C94.2658 21.434 94.4828 20.2192 94.396 19.0477C94.3526 18.2667 94.3526 17.0952 95.264 16.7481Z" fill="#A74F46"/>
<path d="M132.068 16.5745C132.762 16.6612 133.543 16.4877 134.151 16.965C134.758 17.8327 134.541 18.9608 134.585 19.9588C134.541 20.9567 134.758 22.0848 134.107 22.9092C133.543 23.3864 132.719 23.2129 132.024 23.2997C132.068 21.0869 132.068 18.8307 132.068 16.5745Z" fill="#A74F46"/>
<path d="M144.827 16.7047C145.652 16.6179 146.737 16.4443 147.171 17.3555C147.431 18.9175 147.301 20.5662 147.258 22.1716C147.171 23.2563 145.565 23.6468 144.871 23.0828C144.827 20.9567 144.914 18.8307 144.827 16.7047Z" fill="#A74F46"/>
<path d="M33.0712 42.9546C33.2014 44.6467 32.6372 46.2521 31.4654 47.467C31.3352 49.6798 29.6425 51.1984 28.8613 53.1509C29.9463 49.6364 32.073 46.5124 33.0712 42.9546Z" fill="#A74F46"/>
<path d="M36.5434 43.0846L36.8906 42.8677C35.8924 46.816 35.0244 50.8078 33.8525 54.7561C33.6355 54.2788 33.8525 53.8016 33.9393 53.3243C34.8942 49.8966 35.5886 46.4689 36.5434 43.0846Z" fill="#A74F46"/>
<path d="M47.8708 43.0849L48.0444 43.0415C48.3482 43.9527 47.5236 44.6903 47.3066 45.558C46.6122 47.12 46.5254 48.9423 45.397 50.244C45.5706 48.8122 46.265 47.5539 46.699 46.1655C47.0462 45.1675 47.2632 44.0394 47.8708 43.0849Z" fill="#A74F46"/>
<path d="M51.1692 47.6404C52.124 45.9916 52.9052 44.1693 54.294 42.8677C53.2958 44.473 52.6014 46.3388 51.1692 47.6404Z" fill="#A74F46"/>
<path d="M61.2814 43.0847C62.4532 46.7293 63.1042 50.5909 64.1459 54.2789C64.1025 54.3223 63.9722 54.4525 63.8854 54.4959C63.1042 51.9793 62.6702 49.376 61.9758 46.8595C61.672 45.6446 61.0644 44.3864 61.2814 43.0847Z" fill="#A74F46"/>
<path d="M68.9634 42.9546H69.2672C69.2672 46.8595 69.2672 50.7645 69.2672 54.6695H68.9634C68.9634 50.7645 68.9634 46.8595 68.9634 42.9546Z" fill="#A74F46"/>
<path d="M72.8694 42.9546H73.26C73.26 46.8595 73.26 50.7645 73.26 54.6695H72.8694C72.8694 50.7645 72.8694 46.8595 72.8694 42.9546Z" fill="#A74F46"/>
<path d="M96.132 43.3885C96.2188 43.2583 96.349 43.0414 96.4358 42.9546C95.7414 46.9029 94.613 50.7645 93.6148 54.6261L93.2676 54.843C94.2224 50.9815 95.1338 47.1633 96.132 43.3885Z" fill="#A74F46"/>
<path d="M97.9548 42.9114C98.4756 43.7358 98.5624 44.6903 98.8228 45.6015C99.4738 48.5953 100.429 51.5023 100.949 54.4961L100.776 54.5395C99.821 50.6779 98.6492 46.8597 97.9548 42.9114Z" fill="#A74F46"/>
<path d="M103.814 43.0847C104.639 43.4318 104.508 44.4731 105.073 45.0806C105.984 46.3389 105.984 47.9876 106.939 49.2025C107.112 49.8099 107.286 50.4174 107.46 51.0248C107.46 51.155 107.416 51.3719 107.416 51.5021C106.158 48.7252 105.073 45.8616 103.814 43.0847Z" fill="#A74F46"/>
<path d="M114.577 45.4713C114.794 43.9527 116.183 42.9548 117.702 42.9114C116.617 43.3019 115.228 43.7791 115.055 45.1242C114.708 47.3804 114.794 49.7234 114.968 52.0229C115.011 53.5415 116.444 54.2791 117.702 54.6696C116.183 54.6262 114.794 53.6283 114.577 52.0663C114.491 49.8969 114.491 47.6841 114.577 45.4713Z" fill="#A74F46"/>
<path d="M122.78 42.9546H123.084C123.127 45.8616 122.954 48.7253 123.171 51.6323C123.171 53.0641 124.342 54.0186 125.471 54.6695C123.995 54.4525 122.867 53.1075 122.78 51.6757C122.693 48.7252 122.78 45.8616 122.78 42.9546Z" fill="#A74F46"/>
<path d="M129.464 43.1282C129.984 43.2583 129.594 44.2563 129.724 44.6902C129.507 47.5538 130.202 50.5476 129.247 53.3678C129.16 53.9753 128.552 54.1922 128.031 54.2356C128.596 53.4546 129.29 52.6736 129.334 51.6757C129.507 48.7687 129.203 45.9484 129.464 43.1282Z" fill="#A74F46"/>
<path d="M143.178 42.9546H143.482C143.482 46.8595 143.482 50.7645 143.482 54.6695H143.178C143.178 50.7645 143.178 46.8595 143.178 42.9546Z" fill="#A74F46"/>
<path d="M147.084 42.9548L147.388 42.9114C147.388 46.8163 147.388 50.7647 147.388 54.6696H147.084C147.084 50.7647 147.084 46.8597 147.084 42.9548Z" fill="#A74F46"/>
<path d="M156.198 42.9546H156.502C156.502 46.8595 156.502 50.7645 156.502 54.6695H156.198C156.198 50.7645 156.198 46.8595 156.198 42.9546Z" fill="#A74F46"/>
<path d="M161.493 42.9546L161.797 42.8245C162.361 43.1282 162.318 44.1695 161.753 44.4732L161.406 44.3864C161.45 43.996 161.493 43.3017 161.493 42.9546Z" fill="#A74F46"/>
<path d="M148.994 43.4753C150.122 44.6034 150.296 46.2956 151.121 47.5972C151.641 48.465 151.511 49.8101 152.423 50.4175L152.813 50.1138C152.683 50.6344 152.596 51.1551 152.553 51.7191C152.119 51.1551 151.641 50.6778 151.468 49.9836C150.773 47.7274 149.471 45.7315 148.994 43.4753Z" fill="#A74F46"/>
<path d="M30.9447 44.4299L31.2919 44.3865C30.1635 47.0766 28.9049 49.7232 27.6896 52.3699C27.3424 53.0642 27.2556 53.8452 27.082 54.6261H26.8216C26.7782 53.1509 27.6462 51.8927 28.2104 50.5476C29.1219 48.5518 30.0333 46.5125 30.9447 44.4299Z" fill="#A74F46"/>
<path d="M85.4556 44.4299C86.2368 44.5601 86.9312 45.0808 87.0614 45.8617C87.2784 47.2068 87.1482 48.5518 87.1916 49.8969C87.1482 50.8514 87.3218 51.9361 86.4972 52.6304C86.9312 50.4175 86.7576 48.1613 86.7142 45.9485C86.7142 45.2109 85.9764 44.8204 85.4556 44.4299Z" fill="#A74F46"/>
<path d="M37.585 45.5579C38.236 46.3389 38.1058 47.4236 38.3662 48.3781C38.4964 49.2025 39.0172 50.0269 38.7134 50.8512C38.1492 49.1157 37.802 47.3368 37.585 45.5579Z" fill="#A74F46"/>
<path d="M103.814 45.8618C105.116 48.8122 106.375 51.7193 107.59 54.7131C107.243 54.5395 107.026 54.2358 106.939 53.8887C105.897 51.4155 104.725 48.9858 103.814 46.4259C103.814 46.2957 103.814 46.0354 103.814 45.8618Z" fill="#A74F46"/>
<path d="M148.517 45.7749C149.124 46.5993 149.471 47.5538 149.819 48.465C150.6 50.591 151.728 52.5435 152.379 54.6695C150.947 52.5869 150.339 50.0704 149.168 47.8575L148.647 47.5104C148.603 47.0766 148.517 46.6861 148.473 46.2956L148.517 45.7749Z" fill="#A74F46"/>
<path d="M139.272 48.2915C140.618 49.0291 142.093 50.3308 141.789 52.0229C141.529 52.8473 141.442 54.2791 140.27 54.1489C140.921 53.2378 141.789 52.1531 141.355 50.9382C140.791 49.9403 140.357 48.8122 139.272 48.2915Z" fill="#A74F46"/>
<path d="M137.015 48.5952C138.231 49.1159 139.272 49.8969 140.227 50.808C140.184 51.589 140.184 52.5436 139.359 52.9774C139.489 52.37 140.097 51.7626 139.793 51.1551C139.446 49.8101 137.84 49.5931 137.015 48.5952Z" fill="#A74F46"/>
<path d="M50.8655 50.0269C51.2561 49.8534 51.6467 49.6364 52.0373 49.4629C52.2109 49.9402 52.4279 50.374 52.6015 50.8513C52.2543 50.5042 51.8637 50.1137 51.5165 49.7232C51.1693 51.372 51.2561 53.0641 50.9523 54.7129C50.7353 53.1509 50.7353 51.5889 50.8655 50.0269Z" fill="#A74F46"/>
<path d="M3.47217 65.0828C36.8905 65.0828 70.3089 65.0828 103.727 65.0828C103.727 75.496 103.727 85.9092 103.727 96.3224C71.1769 96.3224 38.6265 96.3224 6.07619 96.3224C4.77418 96.5394 3.38537 95.5414 3.51557 94.153C3.47217 84.4774 3.47217 74.8018 3.47217 65.0828ZM13.1939 76.8844C13.2807 80.0084 13.2373 83.1323 13.1939 86.2563C13.4543 86.2997 14.0185 86.3431 14.2789 86.3431C14.2789 85.1282 14.2789 83.9567 14.2789 82.7418C14.4959 82.7852 14.9299 82.8286 15.1469 82.872C15.9281 84.0001 16.5791 85.1716 17.3169 86.3431C17.6641 86.3431 18.2717 86.3431 18.6189 86.3431C17.8811 85.1282 16.9697 84.0435 16.4923 82.6985C18.6189 82.0042 18.9661 78.9671 17.6207 77.4485C16.4055 76.3638 14.6261 76.8844 13.1939 76.8844ZM71.6543 78.1427C71.1335 80.0952 71.3939 82.1778 71.4373 84.1737C71.5675 86.8204 75.6905 87.2109 76.6453 84.9113C76.9057 83.6964 76.7755 82.4381 76.7755 81.2233C75.8207 81.2233 74.8225 81.2233 73.8243 81.2666C73.6507 82.3947 75.0395 81.9175 75.6905 82.0476C75.6037 83.1323 76.0377 84.6075 74.9527 85.3451C73.9545 85.9526 72.6091 85.3452 72.4789 84.1737C72.3053 82.1344 72.2619 80.0084 72.7393 78.0125C73.4771 77.7088 74.6055 77.2749 75.1263 78.1861C75.6471 78.6633 75.4735 80.0518 76.5585 79.6613C77.3831 76.7542 72.6525 75.6262 71.6543 78.1427ZM31.5957 77.2315C31.5957 77.7956 31.5957 78.3162 31.5957 78.8803C31.2919 78.9237 30.7276 78.9671 30.4672 78.9671L30.5106 79.748C30.771 79.748 31.2919 79.7047 31.5523 79.6613C31.6391 81.4402 31.4655 83.2191 31.6825 84.998C31.9429 86.2563 33.3317 86.4299 34.3733 86.2563C34.3733 85.3885 33.5487 85.5187 32.9845 85.3885C32.3335 83.6096 32.8109 81.6571 32.6807 79.7914C33.2449 79.748 33.7657 79.6613 34.3299 79.6179C34.3299 78.7501 33.2883 79.0104 32.7241 78.8369C32.6807 78.0125 32.8109 76.9712 31.5957 77.2315ZM64.7536 77.2749C64.7536 77.7956 64.7102 78.3596 64.7102 78.8803L64.2328 78.9671C62.8874 78.9671 64.0158 80.0952 64.7536 79.8348C64.8404 81.5704 64.6668 83.3059 64.8404 84.998C65.0574 86.1261 66.316 86.4732 67.3576 86.2997C68.0086 85.4319 66.4896 85.5187 66.0122 85.2584C65.665 83.4361 65.882 81.5704 65.8386 79.7047C66.1858 79.7047 66.8802 79.7047 67.2274 79.7047C67.2274 79.5311 67.2274 79.1406 67.2708 78.9237C66.9236 78.9237 66.2292 78.8803 65.882 78.8803C65.882 78.3596 65.882 77.7956 65.882 77.2749C65.5782 77.3183 65.0574 77.2749 64.7536 77.2749ZM19.4869 80.7026C19.3133 82.0042 19.3133 83.3493 19.4869 84.6509C19.8341 87.2976 24.6516 86.8204 24.3478 84.0869C22.959 83.4361 23.1326 86.1261 21.657 85.5621C20.4417 85.5621 20.4851 84.1737 20.3983 83.3059C21.657 83.2625 22.959 83.2191 24.2176 83.2625C24.2176 82.308 24.3044 81.3534 24.0874 80.3989C23.4798 78.3162 19.7473 78.4464 19.4869 80.7026ZM25.2592 81.0931C25.3026 83.3059 28.8614 82.6117 28.8614 84.6943C28.384 86.2563 26.214 85.5621 26.1272 84.1303C25.9102 84.0869 25.5196 83.9567 25.346 83.9133C24.8252 85.6489 26.7782 86.777 28.2538 86.3431C30.1634 86.3431 30.554 83.3493 28.8614 82.6985C27.9934 82.091 26.3442 82.0476 26.3008 80.7026C26.648 79.2274 28.818 79.6613 28.818 81.0931C29.1218 81.0931 29.686 81.0931 29.9464 81.0931C29.7294 80.4856 29.5992 79.8348 29.0784 79.4443C27.733 78.3162 24.912 79.0104 25.2592 81.0931ZM34.8507 80.8328C35.1111 80.9195 35.6753 81.0497 35.9357 81.0931C36.1527 80.3555 36.8037 79.3576 37.7151 79.8348C38.6699 80.0952 38.4529 81.2666 38.5397 82.0476C37.6717 82.1344 36.7169 81.9609 35.9357 82.3514C34.3299 82.9588 34.4167 85.6923 36.0225 86.2563C37.1943 86.56 38.4095 85.9092 39.5813 86.3865C39.4945 84.3472 39.7983 82.308 39.4077 80.3121C38.7133 78.1427 35.1979 78.6633 34.8507 80.8328ZM41.1438 79.0104C41.2306 81.1365 40.8834 83.3059 41.4476 85.3451C41.925 86.7336 43.6176 86.3865 44.746 86.0828C45.1366 86.1695 45.5272 86.2563 45.9612 86.3865C45.9612 83.9133 45.9612 81.4402 45.9612 78.9671C45.7008 78.9671 45.1366 78.9671 44.8328 79.0104C44.8328 80.746 44.9196 82.4815 44.7894 84.2171C44.6158 85.3452 43.3572 85.9092 42.4024 85.215C42.0986 83.1323 42.2722 81.0497 42.2288 78.9671C41.9684 78.9671 41.4042 79.0104 41.1438 79.0104ZM47.4802 79.0538C47.4368 81.4402 47.5236 83.8699 47.4368 86.2563C47.6972 86.2997 48.2614 86.3431 48.5218 86.3431C48.6086 84.434 48.2614 82.4381 48.8256 80.5724C49.2162 79.6179 50.3013 79.7914 51.1259 79.748C51.1259 79.5311 51.1259 79.1406 51.1259 78.9671C50.3013 78.9237 49.52 78.9671 48.7388 79.2708C48.3482 79.0104 47.9576 78.9671 47.4802 79.0538ZM51.6901 81.0063C51.9505 81.0063 52.5147 81.0497 52.7751 81.0497C53.0355 80.3989 53.3827 79.5745 54.2507 79.748C55.3791 79.8782 55.3791 81.1799 55.3357 82.0476C54.2941 82.091 53.0789 81.9175 52.2109 82.6551C51.1693 83.6096 51.3863 85.5621 52.6883 86.1695C53.5129 86.5166 54.4243 86.2997 55.2489 86.1261C55.6395 86.2129 55.9867 86.2997 56.3773 86.3865C56.2905 84.3472 56.5509 82.2646 56.2471 80.2687C55.4659 78.0993 51.7335 78.7067 51.6901 81.0063ZM58.0699 78.8803C58.0265 81.3968 58.0699 83.8699 58.0265 86.3431C58.2869 86.3431 58.8511 86.3431 59.1115 86.2997C59.1983 84.4774 58.9379 82.6551 59.2417 80.8328C59.4153 79.7914 61.1514 79.184 61.4986 80.4423C61.9326 82.3513 61.5854 84.3906 61.6722 86.3431C61.976 86.3431 62.4968 86.3431 62.8006 86.3431C62.627 84.2171 63.1478 81.9175 62.41 79.8782C61.8892 78.62 60.2399 78.9671 59.1983 79.3142C58.9379 79.184 58.3303 78.9671 58.0699 78.8803ZM78.1643 78.9237C78.2511 81.0497 77.9473 83.1757 78.3813 85.2584C78.9021 86.7336 80.5948 86.3865 81.7666 86.0828C82.027 86.1695 82.5912 86.3431 82.8516 86.4299C82.8516 83.9133 82.8516 81.4402 82.8516 78.9237C82.5912 78.9671 82.027 79.0104 81.7666 79.0538C81.7232 80.8761 82.027 82.7852 81.6364 84.5642C81.376 85.6923 79.4663 85.9526 79.3362 84.6075C79.1625 82.7418 79.2927 80.8761 79.2927 79.0104C78.9889 79.0104 78.4247 78.9671 78.1643 78.9237ZM84.5442 78.8803C84.5008 81.3534 84.5442 83.8699 84.5008 86.3431C84.7612 86.3431 85.3254 86.3431 85.5858 86.3431C85.6726 84.5208 85.4122 82.6551 85.716 80.8761C85.9764 79.748 87.1916 79.748 88.103 79.7914C88.103 79.6179 88.103 79.2274 88.1464 79.0104C87.3218 78.9237 86.4972 79.0104 85.716 79.3142C85.4122 79.184 84.8046 78.9671 84.5442 78.8803ZM89.0145 78.9237C89.0578 80.8328 88.9276 82.7418 89.0578 84.6075C89.0578 85.215 89.4484 85.779 89.9693 86.1695C91.1845 86.6468 92.4865 85.7356 93.7017 86.3431C93.7017 83.8699 93.7017 81.3968 93.7017 78.9237C93.4413 78.9671 92.8771 78.9671 92.6167 79.0104C92.6167 80.746 92.7469 82.4381 92.6167 84.1737C92.5299 85.2584 90.9241 86.1261 90.3165 84.9547C89.8825 83.0022 90.1863 81.0063 90.1429 79.0104C89.8391 79.0104 89.2748 78.9671 89.0145 78.9237Z" fill="#A74F46"/>
<path d="M105.463 65.0828C132.241 65.0828 158.976 65.0828 185.754 65.0828C185.754 74.8018 185.797 84.5208 185.754 94.1964C185.841 95.5414 184.452 96.496 183.193 96.3224C157.283 96.3224 131.373 96.3224 105.507 96.3224C105.463 85.9092 105.463 75.496 105.463 65.0828ZM120.697 78.8803C122.086 78.8803 123.431 78.8803 124.82 78.8803C124.993 78.1861 125.124 77.5352 125.384 76.8844C126.122 75.7129 128.118 75.9299 128.552 77.2749C129.116 78.9671 127.901 80.529 126.903 81.7873C124.907 83.9133 122.867 85.9526 120.914 88.0786C120.914 88.9464 120.914 89.8142 120.914 90.7253C125.08 90.7687 129.29 90.7253 133.456 90.7253C133.5 89.6406 133.456 88.5993 133.456 87.5146C131.2 87.5146 128.943 87.5146 126.686 87.558C128.552 85.2584 130.809 83.3059 132.415 80.7894C133.5 78.8369 133.239 76.1468 131.634 74.5414C129.898 72.8059 127.25 72.7191 124.95 73.0662C122.389 73.5869 120.393 76.1902 120.697 78.8803ZM140.357 73.1096C138.013 73.8038 136.494 76.1034 136.364 78.4898C136.06 81.527 135.93 84.6943 136.842 87.6447C138.447 92.1138 145.609 92.4609 147.779 88.3823C149.081 86.0394 148.647 83.3059 148.733 80.746C148.82 78.4464 148.43 75.8865 146.65 74.3245C144.958 72.7191 142.484 72.6323 140.357 73.1096ZM154.072 73.7171C152.292 74.7584 151.424 76.7976 151.251 78.8369C152.683 78.9237 154.115 78.9237 155.547 78.9237C155.808 78.0559 155.764 76.8844 156.676 76.4071C157.717 75.6695 159.236 76.4939 159.41 77.7088C159.583 79.2708 158.542 80.6158 157.674 81.7873C155.721 83.9567 153.594 85.9526 151.641 88.122C151.641 88.9898 151.641 89.9009 151.685 90.7687C155.894 90.7687 160.061 90.7687 164.271 90.7687C164.271 89.7274 164.314 88.6427 164.271 87.6014C162.014 87.558 159.757 87.6014 157.457 87.6014C158.715 85.996 160.278 84.6509 161.493 83.0456C162.708 81.7005 163.924 80.0952 163.793 78.1861C163.88 75.6695 161.797 73.4133 159.366 73.1096C157.587 72.8059 155.634 72.6757 154.072 73.7171ZM167.83 74.0208C167.396 74.9319 167.743 76.06 167.656 77.058C168.958 77.058 170.26 77.058 171.562 77.058C171.562 81.5704 171.605 86.1261 171.562 90.6385C173.038 90.6819 174.513 90.6819 175.945 90.6385C175.945 84.6943 175.989 78.7501 175.945 72.8493C173.211 73.1096 170.52 73.6737 167.83 74.0208Z" fill="#A74F46"/>
<path d="M141.529 76.3638C142.787 75.5394 144.263 76.7977 144.263 78.0993C144.35 80.8328 144.48 83.6096 144.176 86.3431C144.003 87.7749 141.876 88.5125 141.095 87.1241C140.183 85.0848 140.617 82.8286 140.531 80.6592C140.574 79.2274 140.444 77.4919 141.529 76.3638Z" fill="#A74F46"/>
<path d="M14.2788 77.5786C15.2336 77.622 16.6224 77.4051 17.0564 78.5765C17.3168 79.4877 17.3602 80.6592 16.7092 81.3968C16.1016 82.091 15.1034 82.0042 14.2788 82.0042C14.2788 80.529 14.2788 79.0538 14.2788 77.5786Z" fill="#A74F46"/>
<path d="M20.7021 80.1385C21.2663 80.0083 21.9173 79.5744 22.5249 79.9215C23.4363 80.4422 23.1759 81.6137 23.2627 82.4815C22.3079 82.4815 21.3965 82.4381 20.4851 82.4381C20.4851 81.6137 20.6153 80.8761 20.7021 80.1385Z" fill="#A74F46"/>
<path d="M35.8922 84.1302C35.9356 82.7851 37.6282 82.7851 38.583 82.8719C38.4094 83.6963 38.8868 85.0847 37.8018 85.4318C36.9338 85.8657 35.6752 85.2149 35.8922 84.1302Z" fill="#A74F46"/>
<path d="M52.6447 84.1736C52.6881 82.7852 54.3373 82.872 55.3355 82.8286C55.2487 83.653 55.5959 84.6509 54.9015 85.3017C54.0335 85.9526 52.4711 85.3885 52.6447 84.1736Z" fill="#A74F46"/>
<path d="M46.5686 7.89676C47.2631 7.54965 47.7839 8.50419 47.1763 8.93808C46.1346 9.84924 45.0062 10.717 43.791 11.4546C43.14 11.4112 42.923 10.8472 43.2702 10.3699C44.3118 9.45874 45.4402 8.63436 46.5686 7.89676Z" fill="white"/>
<path d="M156.806 10.0661C158.759 10.5867 160.799 8.85118 162.535 10.2396C163.446 11.3243 164.184 12.626 165.356 13.4937C167.482 13.971 169.522 12.1921 171.649 12.8429C172.386 13.3636 172.907 14.2747 172.517 15.1859C171.909 16.7045 170.694 17.9628 170.086 19.4814C170.347 21.1301 171.735 22.3016 172.386 23.8202C173.081 24.9483 172.3 26.5971 170.911 26.5537C169.175 26.5971 167.526 25.6859 165.79 25.7293C163.837 26.6404 163.229 29.3739 161.016 29.938C159.931 29.5041 158.629 29.8946 157.674 29.3305C157.24 27.2479 157.587 25.0785 157.457 22.9958C156.285 22.5619 155.113 22.2148 153.985 21.6942C152.683 21.2603 152.205 19.3512 153.29 18.44C154.245 17.7024 155.547 17.5723 156.458 16.7479C155.2 15.0123 156.024 12.6694 155.894 10.6735C156.198 10.4566 156.589 10.1962 156.806 10.0661ZM161.493 10.8471C161.276 12.409 161.58 13.971 161.319 15.533C160.625 16.3574 159.583 17.0516 159.8 18.2665C159.931 21.8677 159.497 25.5557 160.017 29.157C160.972 28.8099 160.495 27.6818 160.625 26.9008C160.625 23.8636 160.582 20.8698 160.668 17.876C160.755 16.7913 162.274 16.4008 162.231 15.2727C162.231 13.6673 162.404 12.0619 162.057 10.4999C161.927 10.5867 161.667 10.7603 161.493 10.8471ZM156.719 10.8037C156.676 12.2789 156.676 13.7541 156.719 15.2293C156.676 16.5309 158.542 16.878 158.325 18.2231C158.368 21.7375 158.238 25.252 158.368 28.7665L158.846 28.94L159.106 28.6363C159.193 25.1652 159.149 21.6942 159.149 18.2231C159.193 17.1818 158.629 16.2706 157.674 15.8367C157.283 14.188 157.587 12.4958 157.457 10.8471C157.283 10.8037 156.893 10.8037 156.719 10.8037ZM158.238 12.1487C158.412 13.3202 157.804 14.7086 158.759 15.6198C159.366 14.1012 159.063 12.3223 158.976 10.7169C157.978 10.3698 158.281 11.6714 158.238 12.1487ZM159.844 15.533C160.061 15.4462 160.451 15.3161 160.625 15.2293C160.668 13.7541 160.668 12.2355 160.625 10.7603L160.061 10.5867C159.497 12.1053 159.974 13.9276 159.844 15.533ZM163.923 14.8822C165.92 16.4008 168.394 14.8822 170.564 14.5785C169.913 16.4442 168.046 17.8326 168.177 19.9152C168.524 21.6942 169.826 23.0392 170.65 24.5578C168.437 24.3842 165.876 22.8223 163.88 24.5144C162.708 25.7727 161.016 27.0309 161.363 28.9834C162.882 27.8119 163.62 25.8161 165.356 24.9917C167.135 24.8181 168.871 25.5991 170.65 25.7727C171.301 25.8161 171.866 25.3388 171.866 24.688C171.301 22.8223 169.479 21.5206 169.262 19.5247C169.739 17.7458 171.128 16.4008 171.822 14.7086C171.692 14.2747 171.562 13.7107 170.998 13.6673C168.958 13.4504 167.048 14.8388 164.965 14.3615C164.314 13.6673 163.62 12.9731 163.012 12.2355C163.012 13.19 162.838 14.4483 163.923 14.8822ZM153.811 19.1776C153.768 19.3512 153.681 19.7417 153.637 19.9152C154.332 21.3904 156.198 21.4338 157.5 22.0847C157.5 21.7375 157.544 21.0867 157.544 20.783C156.632 20.4359 155.634 20.219 154.809 19.6983C155.807 19.1342 157.847 19.1776 157.587 17.5723C156.241 17.876 154.896 18.3533 153.811 19.1776Z" fill="white"/>
<path d="M26.0836 10.2398C28.731 9.45886 31.6388 10.37 33.7655 12.1056C32.6371 12.9299 31.5086 13.8845 31.118 15.3163C31.2482 15.8803 32.2465 16.4444 32.5937 15.7068C33.3315 14.6221 34.2429 13.494 35.6317 13.3204C38.2357 12.6262 40.7529 15.3163 40.2755 17.8328C40.1019 19.3948 38.8867 20.5663 37.4545 21.1303C37.3677 20.4795 37.2809 19.7853 37.2375 19.0911C34.2863 17.8762 30.8142 18.9175 28.1234 20.3927C28.2102 20.6531 28.4272 21.1737 28.514 21.4775C30.8142 20.6531 33.1579 19.8287 35.6317 20.0022C35.8921 22.4754 36.1091 24.9485 36.3695 27.4217C31.1614 26.6407 25.7364 27.1179 20.8321 29.0704C20.7453 27.5084 20.5717 25.9898 20.3981 24.4279C21.3963 24.3411 22.2644 23.7336 22.9588 23.0394C23.1758 22.432 22.7852 21.7812 22.0908 21.8246C21.0057 22.2584 19.9641 23.1696 18.6621 22.9093C16.8393 22.7791 15.5807 21.2605 15.0599 19.6117C14.8429 17.3556 16.3619 15.0994 18.7055 14.7956C18.7055 15.7502 17.7941 17.0084 18.9225 17.6159C19.5735 18.0498 20.0509 17.0084 20.0943 16.4878C20.7453 13.4506 23.1324 10.9775 26.0836 10.2398Z" fill="white"/>
<path d="M47.9141 12.4091C48.4783 12.279 49.1727 11.8885 49.6501 12.4091C50.3011 12.9298 49.5199 13.624 48.9991 13.7542C47.7405 14.1881 46.4819 14.6653 45.1365 14.8389C44.4855 14.8389 44.1817 13.7542 44.7893 13.4505C45.7441 12.9732 46.8725 12.7562 47.9141 12.4091Z" fill="white"/>
<path d="M74.3882 15.7067C75.8204 15.7501 77.5998 15.1861 78.7716 16.3142C79.8566 17.7894 79.5094 20.2191 77.73 20.9567C78.381 22.0848 79.032 23.1695 79.6396 24.2976C79.2924 24.2976 78.5546 24.2542 78.2074 24.2109C77.3828 23.1262 77.1658 21.2171 75.6902 20.8266C75.6902 21.9981 75.6902 23.1262 75.6468 24.2976C75.343 24.2976 74.692 24.2109 74.3882 24.2109C74.4316 21.3906 74.4316 18.527 74.3882 15.7067ZM75.6468 16.5745C75.6468 17.7026 75.6468 18.8307 75.6034 19.9154C76.9488 20.2625 78.598 19.2646 78.0772 17.746C77.947 16.5745 76.5582 16.6179 75.6468 16.5745Z" fill="white"/>
<path d="M80.8984 15.7067C82.3307 15.6199 83.8063 15.5765 85.2385 15.6633C85.2385 15.9236 85.2819 16.4009 85.3253 16.6612C84.2837 16.6612 83.1987 16.6612 82.1571 16.6612C82.1571 17.5724 82.1571 18.4835 82.1571 19.3947C83.1553 19.6116 85.2819 18.7005 85.1083 20.3492C84.1101 20.3926 83.1119 20.3926 82.1571 20.436C82.1571 21.3905 82.2005 22.3451 82.2005 23.2996C83.2421 23.2996 84.3271 23.2562 85.3687 23.2996C85.4121 23.56 85.4555 24.0372 85.4989 24.2976C83.9799 24.2976 82.4609 24.341 80.9418 24.2108C80.9418 21.3905 80.9418 18.5269 80.8984 15.7067Z" fill="white"/>
<path d="M86.931 17.2687C87.1046 15.5766 89.2746 15.2728 90.5332 15.7935C91.488 16.2274 91.7918 17.3121 91.8352 18.31C91.0974 18.3534 90.62 18.0497 90.4464 17.3989C90.0992 16.1406 87.9292 16.5745 87.9726 17.8328C87.9726 19.3947 87.8858 21.0001 88.016 22.5621C88.7104 23.9939 90.7936 23.2563 90.7936 21.7811C91.0974 21.7811 91.6616 21.7811 91.922 21.8245C91.7484 22.6489 91.5314 23.56 90.7502 24.0807C89.535 24.6447 88.1028 24.4278 87.0612 23.6034C86.6706 21.4774 86.8008 19.3514 86.931 17.2687Z" fill="white"/>
<path d="M94.743 15.75C96.1319 15.2293 97.9981 15.75 98.3887 17.3554C98.6057 19.0475 98.5189 20.7397 98.4321 22.4318C98.0849 24.7314 94.3958 24.9917 93.5278 22.9525C92.9636 21.564 93.3108 20.0454 93.224 18.6136C93.1372 17.4855 93.5278 16.1405 94.743 15.75ZM95.2638 16.7479C94.3524 17.095 94.3958 18.2665 94.3958 19.0475C94.4392 20.1756 94.2222 21.3905 94.6128 22.5186C95.1336 23.6901 97.0867 23.4297 97.2603 22.1281C97.3471 20.6963 97.3471 19.2211 97.2603 17.7893C97.0867 16.8781 96.045 16.4008 95.2638 16.7479Z" fill="white"/>
<path d="M100.342 15.62C100.646 15.62 101.253 15.62 101.557 15.62C102.295 17.3555 102.946 19.1344 103.64 20.87C104.248 19.3948 104.812 17.8762 105.42 16.3576C105.506 15.5766 106.288 15.5332 106.939 15.5332C106.939 18.4402 106.939 21.3473 106.939 24.2543C106.678 24.2543 106.114 24.2543 105.81 24.2543C105.81 22.215 105.81 20.2192 105.767 18.1799C105.333 19.6551 104.812 21.0869 104.248 22.5187C103.944 22.5187 103.293 22.4754 102.989 22.432C102.555 21.1737 102.034 19.9588 101.774 18.6572C101.297 20.4795 101.557 22.3886 101.514 24.2543C101.21 24.2543 100.646 24.2543 100.342 24.2543C100.342 21.3906 100.342 18.527 100.342 15.62Z" fill="white"/>
<path d="M109.022 15.62C109.326 15.62 109.933 15.62 110.237 15.62C110.931 17.3555 111.669 19.0911 112.233 20.87C113.101 19.2212 113.622 17.4423 114.36 15.7501C114.664 15.7068 115.315 15.5766 115.619 15.5332C115.619 18.4402 115.619 21.3473 115.619 24.2543C115.358 24.2543 114.794 24.2543 114.49 24.2543C114.49 22.215 114.49 20.2192 114.49 18.1799C114.013 19.6551 113.492 21.0869 112.928 22.5187C112.624 22.5187 111.973 22.4754 111.669 22.432C111.235 21.1737 110.714 19.9154 110.411 18.6138C109.977 20.4361 110.194 22.3452 110.194 24.2109C109.89 24.2109 109.326 24.2543 109.022 24.2543C109.022 21.3906 109.022 18.527 109.022 15.62Z" fill="white"/>
<path d="M117.658 15.6199C119.091 15.6199 120.523 15.6199 121.955 15.6199C121.912 15.8802 121.825 16.4009 121.781 16.6612C120.783 16.6178 119.785 16.6178 118.787 16.6178C118.787 17.529 118.787 18.4401 118.787 19.3079C119.742 19.3079 120.653 19.3513 121.608 19.3513C121.651 19.5682 121.781 20.0021 121.868 20.2624C120.87 20.3492 119.828 20.436 118.83 20.3926C118.83 21.3471 118.83 22.3017 118.83 23.2562C119.872 23.56 122.259 22.4752 122.172 24.2976C120.653 24.2976 119.177 24.2976 117.702 24.2976C117.658 21.3905 117.658 18.5269 117.658 15.6199Z" fill="white"/>
<path d="M123.735 15.6199C124.038 15.6199 124.646 15.6633 124.993 15.7067C125.774 17.5724 126.729 19.3947 127.467 21.2604C127.901 19.4381 127.597 17.529 127.684 15.6633C127.988 15.6633 128.552 15.6633 128.856 15.6633C128.856 18.5703 128.856 21.4339 128.856 24.3409C128.552 24.3409 127.944 24.2976 127.641 24.2976C126.816 22.4319 125.861 20.6095 125.167 18.6571C124.733 20.5228 124.993 22.4319 124.95 24.2976C124.646 24.2976 124.038 24.2976 123.735 24.2976C123.735 21.3905 123.735 18.4835 123.735 15.6199Z" fill="white"/>
<path d="M130.809 15.7066C132.415 15.6633 134.671 15.0558 135.496 16.9215C136.017 18.4401 135.67 20.1323 135.756 21.7376C135.843 22.8223 135.192 23.9504 134.107 24.2542C133.022 24.4277 131.894 24.2975 130.765 24.2542C130.852 21.3905 130.852 18.5269 130.809 15.7066ZM132.067 16.5744C132.067 18.8306 132.067 21.0434 132.067 23.2996C132.762 23.2128 133.586 23.3864 134.151 22.9091C134.758 22.0414 134.541 20.9566 134.628 19.9587C134.585 18.9608 134.802 17.8327 134.194 16.9649C133.543 16.531 132.762 16.6612 132.067 16.5744Z" fill="white"/>
<path d="M137.623 15.6199C139.055 15.6199 140.487 15.6199 141.919 15.6199C141.876 15.8802 141.833 16.4009 141.789 16.6612C140.791 16.6178 139.793 16.6178 138.795 16.6612C138.795 17.5724 138.795 18.4401 138.795 19.3513C139.749 19.3513 140.661 19.3513 141.616 19.3947C141.659 19.6116 141.789 20.0455 141.876 20.2624C140.878 20.3926 139.836 20.436 138.838 20.3926C138.838 21.3471 138.838 22.3017 138.838 23.2562C139.923 23.56 142.267 22.4752 142.136 24.2976C140.661 24.2976 139.142 24.2976 137.666 24.2976C137.623 21.3905 137.623 18.5269 137.623 15.6199Z" fill="white"/>
<path d="M143.699 15.62C145.391 15.62 147.952 15.1427 148.473 17.3555C148.56 19.2212 148.777 21.1737 148.343 22.996C147.561 24.8184 145.305 24.2109 143.742 24.2977C143.699 21.3907 143.699 18.527 143.699 15.62ZM144.827 16.7047C144.914 18.8308 144.827 20.9568 144.871 23.0828C145.565 23.6469 147.171 23.2564 147.258 22.1717C147.301 20.5663 147.431 18.9609 147.171 17.3555C146.737 16.4444 145.652 16.6179 144.827 16.7047Z" fill="white"/>
<path d="M8.37602 22.345C9.20063 22.1281 11.5443 21.2603 10.8498 22.9958C9.72144 23.4297 8.59302 23.8202 7.37781 24.0805C6.64 24.0805 6.3796 23.7334 6.5532 23.0392C7.16081 22.7355 7.76842 22.5619 8.37602 22.345Z" fill="white"/>
<path d="M9.28759 27.9422C10.3726 27.1612 11.4142 26.3369 12.586 25.6426C13.1936 25.5125 13.237 26.2501 13.3672 26.6406C12.1086 27.5517 10.9368 28.5931 9.54799 29.3307C8.89698 28.9836 8.81018 28.5063 9.28759 27.9422Z" fill="white"/>
<path d="M3.47192 35.5786C64.2325 35.5786 124.993 35.5786 185.754 35.5786C185.754 44.8203 185.754 54.1055 185.754 63.3472C124.993 63.3472 64.2325 63.3472 3.47192 63.3472C3.47192 54.1055 3.47192 44.8203 3.47192 35.5786ZM27.1686 42.9546C27.1686 43.3451 27.1686 44.0827 27.1686 44.4732C28.4272 44.4732 29.6858 44.4732 30.9444 44.4732C30.033 46.5559 29.1216 48.5951 28.1668 50.6344C27.6026 51.936 26.7346 53.1943 26.778 54.7129H27.0384C29.0348 54.7129 31.0312 54.7129 33.071 54.7129C33.071 54.3224 33.071 53.5848 33.071 53.1943C31.6388 53.1943 30.2066 53.1509 28.8178 53.1943C29.6424 51.2418 31.335 49.7232 31.4218 47.5104C32.5936 46.2956 33.2012 44.6902 33.0276 42.998C31.118 42.9546 29.165 42.9546 27.1686 42.9546ZM36.5431 43.0848C35.5883 46.4691 34.8504 49.9402 33.939 53.3245C33.8522 53.8018 33.5918 54.279 33.8522 54.7563C34.373 54.7129 34.8938 54.6695 35.4581 54.6261C35.6317 53.8451 35.7619 53.0208 35.8921 52.2398C36.9337 52.1964 38.0187 52.1964 39.0603 52.1964C39.2339 53.0208 39.4075 53.8451 39.5811 54.6261C40.1453 54.6261 40.6661 54.6695 41.2303 54.6695C40.3189 50.7646 39.2773 46.9464 38.4093 43.0414C37.8885 42.998 37.4111 42.9113 36.8903 42.8679L36.5431 43.0848ZM40.8831 42.9546C41.7077 45.1675 42.4455 47.3803 43.2701 49.5931C43.9645 51.1984 43.6173 52.934 43.6607 54.6261C44.1815 54.6261 44.7458 54.6695 45.2666 54.7129C45.31 53.2377 45.1364 51.7625 45.3968 50.2873C46.5252 48.9422 46.612 47.1199 47.3064 45.6013C47.5234 44.7336 48.348 43.996 48.0442 43.0848L47.8706 43.1282L47.9574 42.9546C47.5668 42.9546 46.7856 42.998 46.395 43.0414C45.7006 44.9071 45.1364 46.8162 44.5287 48.6819C43.6173 46.903 43.1833 44.9071 42.5323 43.0414C42.1417 42.998 41.3171 42.9546 40.8831 42.9546ZM49.3896 42.9546C49.3896 46.8596 49.3896 50.7646 49.3896 54.6695C49.7802 54.6695 50.5614 54.6695 50.952 54.6695C51.2992 53.0208 51.169 51.3286 51.5162 49.6798C51.8634 50.027 52.254 50.4175 52.6012 50.8079C53.1654 52.153 53.99 53.3679 54.641 54.6695C55.0751 54.6695 55.9865 54.6695 56.4205 54.6695C55.1619 52.5001 53.9466 50.2873 52.6446 48.1179C53.7296 46.4257 54.6844 44.6468 55.9431 43.0848C55.5091 43.0414 54.6844 42.9113 54.2938 42.8679C52.905 44.1695 52.1238 45.9918 51.169 47.6406L50.952 47.8141C50.9086 46.1654 50.952 44.56 50.952 42.9546C50.5614 42.9546 49.7802 42.9546 49.3896 42.9546ZM59.5019 43.0414C58.5905 46.9464 57.6357 50.8079 56.5941 54.6695C56.9847 54.6695 57.8527 54.6695 58.2433 54.6695C58.4169 53.8451 58.5905 53.0208 58.7641 52.153C59.8057 52.153 60.8473 52.153 61.8889 52.153C62.2795 53.3245 61.9323 55.4071 63.9721 54.7129L63.8853 54.496C63.9287 54.4526 64.0589 54.3224 64.1457 54.279C63.1041 50.591 62.4097 46.7294 61.2813 43.0848V42.8679C60.8473 42.9113 59.9359 42.998 59.5019 43.0414ZM68.9632 42.9546C68.9632 46.8596 68.9632 50.7646 68.9632 54.6695H69.267C69.5274 54.6695 70.0482 54.6695 70.3086 54.6695L70.6558 54.6261C70.6124 50.8079 70.6992 46.9464 70.6124 43.1282L70.3086 42.8679C70.0482 42.9113 69.5274 42.9546 69.267 42.9546H68.9632ZM72.8692 42.9546C72.8692 46.8596 72.8692 50.7646 72.8692 54.6695H73.2598C73.4768 54.6695 73.9109 54.6695 74.1279 54.6695L74.6487 54.6261C74.7789 51.8927 74.4316 49.1592 74.6053 46.4257C75.6903 49.2026 76.9489 51.8493 78.0773 54.5827C78.4245 54.6261 79.0755 54.7129 79.3793 54.7563L79.6831 54.496C79.7699 50.6778 79.6831 46.8162 79.7265 42.998L79.3359 42.9546C79.0321 42.9546 78.4245 42.9546 78.1207 42.998C78.1641 45.5146 78.0773 48.0745 78.2509 50.591C78.1641 50.591 77.9471 50.6778 77.8603 50.6778C76.8187 48.1179 75.6035 45.6013 74.6053 43.0414C74.258 43.0414 73.607 42.998 73.2598 42.9546H72.8692ZM82.1569 42.998C82.2003 46.8596 82.2003 50.7646 82.1569 54.6261C83.8062 54.6261 85.629 54.9298 87.1046 54.0621C87.8858 53.5414 88.4934 52.5869 88.2764 51.6323L88.4934 51.9794C88.6236 49.8534 88.5802 47.7708 88.5368 45.6447L88.2764 45.9484C88.4934 44.9939 87.8424 44.0394 87.1046 43.5621C85.5856 42.6943 83.8062 42.998 82.1569 42.998ZM90.5332 42.9546C90.5332 46.8596 90.5332 50.7646 90.5332 54.6695C90.9238 54.6695 91.705 54.6695 92.0956 54.6695C92.0956 50.7646 92.0956 46.8596 92.0956 42.9546C91.705 42.9546 90.9238 42.9546 90.5332 42.9546ZM96.1319 43.3885C95.1337 47.1633 94.2223 51.0249 93.2674 54.7997L93.6146 54.5827C93.9619 54.6261 94.7431 54.6261 95.0903 54.6695C95.2639 53.8451 95.4375 52.9774 95.6111 52.153C96.6527 52.153 97.6943 52.153 98.7359 52.153C98.9095 52.9774 99.1265 53.8451 99.3001 54.6695C99.6473 54.6261 100.385 54.5827 100.732 54.5394L100.906 54.496C100.385 51.5022 99.4737 48.5518 98.7793 45.6013C98.5189 44.6902 98.4321 43.6922 97.9113 42.9113C97.5207 42.9113 96.7395 42.9113 96.3489 42.9113C96.3489 43.0414 96.2187 43.2584 96.1319 43.3885ZM102.338 42.9546C102.338 46.8596 102.338 50.7646 102.338 54.6695C102.729 54.6695 103.51 54.6695 103.901 54.6695C103.944 51.936 103.857 49.2026 103.857 46.4691C104.769 48.9856 105.984 51.4154 106.982 53.9319C107.069 54.279 107.329 54.5827 107.633 54.7563C107.98 54.7563 108.675 54.7129 109.022 54.6695C109.022 50.7646 109.022 46.8596 109.022 42.9546C108.631 42.9546 107.85 42.9546 107.459 42.9546C107.373 45.6447 107.546 48.3348 107.459 51.0249C107.286 50.4175 107.112 49.81 106.939 49.2026C105.984 47.9877 105.984 46.2956 105.072 45.0807C104.508 44.4732 104.638 43.4753 103.814 43.0848C103.467 43.0414 102.685 42.998 102.338 42.9546ZM114.577 45.4712C114.49 47.684 114.49 49.8968 114.577 52.0662C114.794 53.6282 116.183 54.6261 117.702 54.6695C119.698 54.7563 121.391 53.1509 121.391 51.1551C121 51.1551 120.176 51.1984 119.785 51.2418C119.959 53.1943 116.877 53.9319 116.313 52.0228C115.966 50.2005 116.226 48.2914 116.183 46.4257C116.009 45.1675 117.268 44.0394 118.483 44.5166C119.395 44.6468 119.612 45.6447 119.785 46.3823C120.176 46.3823 120.957 46.3823 121.304 46.3823C121.304 44.3865 119.698 42.7811 117.702 42.8679C116.183 42.998 114.794 43.9526 114.577 45.4712ZM122.78 42.9546C122.823 45.8617 122.736 48.7253 122.823 51.6323C122.867 53.1075 124.038 54.4092 125.514 54.6261C126.382 54.7563 127.293 54.5827 128.075 54.1922C128.595 54.1489 129.203 53.9319 129.29 53.3245C130.201 50.5476 129.55 47.5538 129.767 44.6468C129.637 44.2129 130.028 43.215 129.507 43.0848L129.55 42.8679C129.16 42.8679 128.378 42.9113 127.988 42.9546C127.944 45.9051 128.118 48.8989 127.901 51.8493C127.597 53.5414 124.689 53.3679 124.603 51.6323C124.429 48.7253 124.559 45.8183 124.516 42.9546C124.169 42.9546 123.474 42.9546 123.084 42.9113L122.78 42.9546ZM131.764 42.9546C131.764 46.8596 131.764 50.7646 131.764 54.6695C132.154 54.6695 132.935 54.6695 133.326 54.6695C133.326 50.7646 133.326 46.8596 133.326 42.9546C132.935 42.9546 132.154 42.9546 131.764 42.9546ZM136.407 43.5621C134.541 44.777 135.105 47.7708 137.015 48.5951C137.84 49.5497 139.446 49.81 139.793 51.1117C140.097 51.7625 139.489 52.3265 139.359 52.934C138.057 53.2811 136.624 52.8472 136.407 51.372C135.93 51.372 135.453 51.372 134.975 51.372C134.758 54.1055 138.144 55.4505 140.227 54.1055C141.442 54.2356 141.529 52.8038 141.746 51.9794C142.05 50.2873 140.574 48.9856 139.229 48.248C138.274 47.5538 136.538 47.0332 136.755 45.558C136.798 44.6468 138.057 44.2129 138.795 44.56C139.489 44.7336 139.576 45.5146 140.01 45.9918C140.357 45.9918 141.008 46.0352 141.355 46.0352C141.572 43.4753 138.361 42.1303 136.407 43.5621ZM143.178 42.9546C143.178 46.8596 143.178 50.7646 143.178 54.6695H143.482C143.742 54.6695 144.263 54.6695 144.523 54.6695L144.914 54.6261C144.914 50.7646 144.871 46.8596 144.914 42.998L144.523 42.9546C144.263 42.9546 143.742 42.9546 143.482 42.9546H143.178ZM147.084 42.9546C147.084 46.8596 147.084 50.7646 147.084 54.6695H147.388C147.648 54.6695 148.212 54.7563 148.473 54.7563L148.733 54.496C148.82 52.1964 148.82 49.8968 148.69 47.5972L149.211 47.9443C150.339 50.1571 150.99 52.6736 152.422 54.7563C152.943 54.7129 153.42 54.7129 153.941 54.6695C153.854 50.7646 153.985 46.8596 153.898 42.998C153.507 43.0414 152.683 43.0848 152.292 43.0848C152.292 45.558 152.292 48.0311 152.466 50.5042C151.598 49.8968 151.728 48.5518 151.164 47.684C150.339 46.3389 150.165 44.6468 149.037 43.5621L148.994 43.3018C148.603 43.215 147.822 43.0414 147.431 42.998L147.084 42.9546ZM156.198 42.9546C156.198 46.8596 156.198 50.7646 156.198 54.6695H156.502C158.325 54.6695 160.148 54.6695 161.97 54.6695C161.97 54.3224 161.97 53.6282 161.97 53.2377C160.582 53.2377 159.193 53.2811 157.761 53.1509C157.804 51.9794 157.804 50.808 157.761 49.5931C159.019 49.5063 160.278 49.5063 161.536 49.5063C161.536 49.1592 161.536 48.465 161.536 48.0745C160.278 48.0745 159.063 48.0745 157.804 48.0745C157.804 46.8596 157.804 45.6013 157.761 44.3431C158.976 44.2563 160.191 44.2563 161.363 44.2563L161.71 44.3431C162.274 44.0827 162.318 42.998 161.753 42.6943L161.45 42.8245C159.8 42.8245 158.108 42.8245 156.458 42.8245L156.198 42.9546Z" fill="white"/>
<path d="M83.7626 44.5165C84.3268 44.4731 84.8911 44.4731 85.4553 44.4731C85.9761 44.8636 86.7139 45.2541 86.7139 45.9917C86.7573 48.2046 86.9309 50.5041 86.4969 52.6736C85.6723 53.2376 84.674 53.2376 83.7192 53.1508C83.8494 50.2438 83.806 47.3802 83.7626 44.5165Z" fill="white"/>
<path d="M37.5413 44.9939C37.5413 45.1241 37.5847 45.4278 37.5847 45.5579C37.8017 47.3369 38.1489 49.1158 38.7131 50.8513C37.8885 50.8079 37.0639 50.7646 36.2827 50.6778C36.8903 48.8121 37.1507 46.903 37.5413 44.9939Z" fill="white"/>
<path d="M59.1548 50.7645C59.6322 48.8988 59.8492 46.9463 60.37 45.124C60.7172 47.0331 61.1512 48.8988 61.5418 50.7645C60.7606 50.7645 59.9794 50.7645 59.1548 50.7645Z" fill="white"/>
<path d="M97.1301 45.124C97.6509 46.9463 97.8679 48.8988 98.3887 50.7645C97.5641 50.7645 96.7829 50.7645 95.9583 50.7645C96.3923 48.8988 96.8263 46.9897 97.1301 45.124Z" fill="white"/>
<path d="M120.697 78.8803C120.393 76.1902 122.389 73.5869 124.993 73.0229C127.293 72.7192 129.941 72.7625 131.677 74.4981C133.283 76.1035 133.5 78.7935 132.458 80.746C130.852 83.2626 128.595 85.215 126.729 87.5146C128.986 87.4712 131.243 87.4712 133.5 87.4712C133.543 88.5559 133.543 89.5973 133.5 90.682C129.333 90.682 125.123 90.682 120.957 90.682C120.957 89.8142 120.957 88.9464 120.957 88.0353C122.91 85.9092 124.95 83.87 126.946 81.7439C127.944 80.4857 129.16 78.9237 128.595 77.2316C128.161 75.9299 126.165 75.713 125.427 76.8411C125.167 77.4919 124.993 78.1861 124.863 78.8369C123.431 78.8803 122.042 78.8803 120.697 78.8803Z" fill="white"/>
<path d="M140.357 73.1095C142.484 72.6756 144.957 72.719 146.65 74.281C148.473 75.8864 148.82 78.4463 148.733 80.7025C148.646 83.2624 149.08 86.0393 147.778 88.3389C145.565 92.4174 138.404 92.0702 136.842 87.6012C135.93 84.6508 136.017 81.4835 136.364 78.4463C136.494 76.1033 138.013 73.8037 140.357 73.1095ZM141.529 76.3636C140.444 77.4917 140.574 79.2273 140.531 80.7025C140.617 82.8285 140.183 85.1281 141.095 87.1674C141.876 88.5558 144.003 87.8182 144.176 86.3864C144.437 83.6529 144.35 80.876 144.263 78.1426C144.263 76.7541 142.787 75.5393 141.529 76.3636Z" fill="white"/>
<path d="M154.072 73.717C155.634 72.6756 157.587 72.8492 159.366 72.9794C161.797 73.3265 163.923 75.5393 163.793 78.0558C163.923 79.9649 162.752 81.5703 161.493 82.9153C160.234 84.5641 158.715 85.8657 157.457 87.4711C159.714 87.4711 161.97 87.4711 164.271 87.4711C164.271 88.5124 164.271 89.5971 164.271 90.6385C160.104 90.6385 155.894 90.6385 151.684 90.6385C151.684 89.7707 151.684 88.8595 151.641 87.9918C153.594 85.8223 155.721 83.8265 157.674 81.657C158.585 80.4856 159.627 79.1405 159.41 77.5785C159.236 76.3637 157.717 75.5827 156.676 76.2769C155.764 76.7542 155.808 77.9256 155.547 78.7934C154.115 78.8368 152.683 78.8368 151.25 78.7066C151.424 76.7975 152.249 74.7583 154.072 73.717Z" fill="white"/>
<path d="M167.829 74.0206C170.52 73.6735 173.211 73.1095 175.902 72.8491C175.945 78.7933 175.902 84.7376 175.902 90.6384C174.426 90.6818 172.951 90.6818 171.518 90.6384C171.562 86.126 171.518 81.5702 171.518 77.0578C170.216 77.0578 168.914 77.0578 167.612 77.0578C167.743 76.1033 167.395 74.9318 167.829 74.0206Z" fill="white"/>
<path d="M13.1936 76.8843C14.6692 76.8843 16.4052 76.407 17.6204 77.4484C18.9659 78.967 18.6187 82.0041 16.492 82.6984C16.9694 84.0434 17.8809 85.1281 18.6187 86.343C18.3149 86.343 17.6638 86.343 17.3166 86.343C16.5788 85.2149 15.9278 84 15.1466 82.8719C14.9296 82.8285 14.4956 82.7851 14.2786 82.7417C14.2786 83.9566 14.2786 85.1281 14.2786 86.343C14.0182 86.2996 13.454 86.2562 13.1936 86.2562C13.237 83.1322 13.237 80.0083 13.1936 76.8843ZM14.2786 77.5785C14.2352 79.0537 14.2352 80.5289 14.2786 82.0475C15.1032 82.0041 16.1014 82.1343 16.709 81.4401C17.36 80.6591 17.3166 79.531 17.0562 78.6199C16.6222 77.405 15.2768 77.6219 14.2786 77.5785Z" fill="white"/>
<path d="M71.6539 78.1427C72.6521 75.6261 77.3828 76.7542 76.6016 79.6179C75.5165 80.0518 75.6901 78.6633 75.1693 78.1427C74.6485 77.2749 73.5201 77.6654 72.7823 77.9691C72.3049 80.0084 72.3483 82.091 72.5219 84.1303C72.6521 85.3018 73.9975 85.9092 74.9957 85.3018C76.0808 84.5642 75.6468 83.089 75.7336 82.0042C75.0825 81.8741 73.6937 82.3513 73.8673 81.2232C74.8221 81.1799 75.8204 81.1799 76.8186 81.1799C76.8186 82.3947 76.9488 83.653 76.6884 84.8679C75.7336 87.1241 71.6105 86.7336 71.4803 84.1303C71.3935 82.1778 71.1331 80.0952 71.6539 78.1427Z" fill="white"/>
<path d="M31.5954 77.2314C32.8106 76.9276 32.6804 78.0123 32.6804 78.8801C33.2446 79.0537 34.2862 78.7933 34.2862 79.6611C33.7654 79.7479 33.2012 79.7913 32.637 79.8347C32.8106 81.7004 32.2898 83.6528 32.9408 85.4318C33.5484 85.5619 34.373 85.4318 34.3296 86.2995C33.2446 86.4731 31.8558 86.2995 31.6388 85.0413C31.4218 83.2623 31.6388 81.4834 31.5086 79.7045C31.2482 79.7045 30.7274 79.7479 30.467 79.7913L30.4236 79.0103C30.684 78.9669 31.2482 78.9235 31.552 78.9235C31.5954 78.3595 31.5954 77.7954 31.5954 77.2314Z" fill="white"/>
<path d="M64.7535 77.2749C65.0139 77.2749 65.5347 77.3183 65.8385 77.3183C65.8385 77.8389 65.8385 78.403 65.8385 78.9237C66.1857 78.9237 66.8801 78.9671 67.2273 78.9671C67.2273 79.1406 67.2273 79.5311 67.1839 79.748C66.8367 79.748 66.1423 79.748 65.7951 79.748C65.8385 81.5704 65.6215 83.4361 65.9687 85.3018C66.4027 85.5621 67.9217 85.4753 67.3141 86.3431C66.3159 86.5166 65.0573 86.1695 64.7969 85.0414C64.5799 83.3493 64.7535 81.6138 64.7101 79.8782C63.9723 80.0952 62.8438 78.9671 64.1893 79.0104L64.7101 78.9237C64.7535 78.3596 64.7535 77.839 64.7535 77.2749Z" fill="white"/>
<path d="M19.4867 80.7024C19.7471 78.4462 23.4796 78.316 24.1306 80.3553C24.3476 81.3098 24.2608 82.2644 24.2608 83.2189C22.9588 83.1755 21.7002 83.2189 20.4415 83.2623C20.5283 84.1301 20.4849 85.5185 21.7002 85.5185C23.1758 86.0826 23.0456 83.3925 24.391 84.0433C24.6514 86.7768 19.8339 87.2541 19.5301 84.6074C19.3565 83.3491 19.3131 82.0041 19.4867 80.7024ZM20.7019 80.1384C20.6151 80.876 20.4849 81.6569 20.4415 82.3946C21.353 82.4379 22.3078 82.4379 23.2192 82.4379C23.1324 81.5702 23.4362 80.3987 22.4814 79.878C21.9172 79.5309 21.2662 79.9648 20.7019 80.1384Z" fill="white"/>
<path d="M25.259 81.0931C24.9117 79.0105 27.7328 78.3163 29.0348 79.4444C29.5556 79.8349 29.6858 80.5291 29.9028 81.0931C29.599 81.0931 29.0348 81.0931 28.7744 81.0931C28.8178 79.6179 26.6044 79.184 26.2572 80.7026C26.3006 82.0043 27.9498 82.0477 28.8178 82.6985C30.5104 83.3493 30.1198 86.3865 28.2102 86.3431C26.6912 86.777 24.7381 85.6489 25.3024 83.9134C25.5194 83.9568 25.91 84.0869 26.0836 84.1303C26.1704 85.5621 28.3838 86.2564 28.8178 84.6944C28.8612 82.5683 25.3024 83.2626 25.259 81.0931Z" fill="white"/>
<path d="M34.8504 80.8327C35.1976 78.6199 38.713 78.1426 39.4508 80.2687C39.798 82.2645 39.5376 84.3038 39.6244 86.343C38.4526 85.9092 37.2374 86.5166 36.0656 86.2129C34.4164 85.6488 34.3296 82.9154 35.9788 82.3079C36.8034 81.9608 37.7148 82.091 38.5828 82.0042C38.496 81.2666 38.713 80.0951 37.7582 79.7914C36.8468 79.3141 36.1958 80.3121 35.9788 81.0497C35.675 81.0497 35.1108 80.9195 34.8504 80.8327ZM35.892 84.1302C35.7184 85.1716 36.9336 85.8658 37.8016 85.4319C38.8866 85.0848 38.4092 83.6964 38.5828 82.872C37.5846 82.8286 35.9354 82.7852 35.892 84.1302Z" fill="white"/>
<path d="M41.1434 79.0104C41.4039 79.0104 41.9681 78.967 42.2285 78.967C42.2719 81.0497 42.1417 83.1323 42.4021 85.215C43.3569 85.9092 44.6155 85.3452 44.7891 84.2171C44.9193 82.4815 44.8325 80.746 44.8325 79.0104C45.0929 79.0104 45.6571 78.967 45.9609 78.967C45.9175 81.4402 45.9609 83.9133 45.9609 86.3865C45.5703 86.2563 45.1797 86.1695 44.7457 86.0827C43.6607 86.3431 41.9681 86.7336 41.4473 85.3451C40.883 83.2625 41.2302 81.0931 41.1434 79.0104Z" fill="white"/>
<path d="M47.48 79.0537C47.914 78.967 48.348 79.0103 48.782 79.2707C49.5632 79.0103 50.3444 78.9236 51.169 78.967C51.169 79.1839 51.169 79.5744 51.169 79.7479C50.3444 79.7913 49.2594 79.6178 48.8688 80.5723C48.3046 82.438 48.6518 84.4339 48.565 86.343C48.3046 86.2996 47.7404 86.2562 47.48 86.2562C47.5668 83.8698 47.48 81.4401 47.48 79.0537Z" fill="white"/>
<path d="M51.6898 81.0062C51.7766 78.6632 55.4656 78.0992 56.2468 80.2686C56.5506 82.3079 56.2902 84.3471 56.377 86.3864C55.9864 86.2996 55.6392 86.2128 55.2486 86.126C54.424 86.2562 53.5126 86.4731 52.688 86.1694C51.4294 85.5186 51.2124 83.5661 52.2106 82.655C53.0786 81.9174 54.2938 82.0909 55.3354 82.0475C55.3354 81.1798 55.3788 79.8781 54.2504 79.7479C53.3824 79.5744 53.0352 80.4422 52.7748 81.0496C52.471 81.0496 51.9502 81.0062 51.6898 81.0062ZM52.6446 84.1736C52.5144 85.3884 54.0334 85.9525 54.9014 85.3017C55.5958 84.6508 55.2486 83.6529 55.3354 82.8285C54.3372 82.8719 52.6446 82.7851 52.6446 84.1736Z" fill="white"/>
<path d="M58.0696 78.8801C58.3734 78.9669 58.9377 79.1838 59.2415 79.314C60.2831 78.9669 61.8889 78.6198 62.4531 79.8781C63.2343 81.9607 62.6701 84.2169 62.8437 86.3429C62.5833 86.3429 62.0191 86.3429 61.7153 86.3429C61.6285 84.3905 61.9757 82.3946 61.5417 80.4421C61.1511 79.2272 59.4585 79.7913 59.2849 80.8326C58.9811 82.6549 59.2415 84.4772 59.1547 86.2995C58.8943 86.2995 58.33 86.2995 58.0696 86.3429C58.0262 83.8264 57.9828 81.3533 58.0696 78.8801Z" fill="white"/>
<path d="M78.164 78.9236C78.4244 78.967 78.9886 79.0104 79.2491 79.0104C79.2491 80.8761 79.1188 82.7418 79.2924 84.6075C79.4226 85.9525 81.3323 85.6922 81.5927 84.5641C81.9833 82.7852 81.6795 80.8761 81.7229 79.0538C81.9833 79.0104 82.5475 78.967 82.8079 78.9236C82.8079 81.4401 82.8079 83.9133 82.8079 86.4298C82.5475 86.343 81.9833 86.1695 81.7229 86.0827C80.5511 86.3864 78.8584 86.7335 78.3376 85.2583C77.947 83.1757 78.2508 81.0496 78.164 78.9236Z" fill="white"/>
<path d="M84.544 78.8801C84.8478 78.9669 85.412 79.1838 85.7158 79.314C86.497 79.0537 87.3216 78.9669 88.1462 79.0103C88.1462 79.1838 88.1462 79.5743 88.1028 79.7913C87.1914 79.7479 85.9762 79.7913 85.7158 80.876C85.412 82.6983 85.6724 84.5206 85.5856 86.3429C85.3252 86.3429 84.761 86.3429 84.5006 86.3429C84.5006 83.8264 84.4572 81.3533 84.544 78.8801Z" fill="white"/>
<path d="M89.0142 78.9236C89.2746 78.967 89.8388 79.0104 90.0992 79.0538C90.1426 81.0496 89.8388 83.0455 90.2728 84.998C90.8804 86.1695 92.4862 85.3017 92.573 84.217C92.7032 82.4815 92.6164 80.7893 92.573 79.0538C92.8334 79.0104 93.3976 78.967 93.6581 78.967C93.6581 81.4401 93.6581 83.9133 93.6581 86.3864C92.4428 85.779 91.1408 86.6901 89.9256 86.2129C89.4482 85.8658 89.0576 85.3017 89.0142 84.6509C88.9274 82.7418 89.0576 80.8327 89.0142 78.9236Z" fill="white"/>
</svg>
