<svg width="13" height="18" viewBox="0 0 13 18" fill="none" xmlns="http://www.w3.org/2000/svg">
<path d="M1.62978 8.41527L4.81201 9.96805C5.42532 10.2683 5.32949 11.1663 4.66826 11.3324L1.23368 12.1888C1.13286 12.2141 1.02778 12.2176 0.925502 12.1989C0.823229 12.1803 0.726137 12.1399 0.640761 12.0806C0.555384 12.0213 0.483703 11.9444 0.430539 11.855C0.377376 11.7657 0.343963 11.666 0.33255 11.5627C0.227163 10.6441 0.325317 9.71361 0.620043 8.83725C0.653106 8.7391 0.706724 8.64913 0.777317 8.57334C0.847911 8.49755 0.933856 8.43769 1.02942 8.39776C1.12498 8.35782 1.22796 8.33873 1.33149 8.34175C1.43502 8.34477 1.53671 8.36983 1.62978 8.41527ZM3.0353 16.0578C3.79668 16.5794 4.6623 16.9294 5.57226 17.0835C5.67467 17.1011 5.77964 17.0965 5.88014 17.0701C5.98063 17.0437 6.07431 16.9961 6.15487 16.9305C6.23543 16.8649 6.301 16.7828 6.34719 16.6898C6.39337 16.5967 6.41908 16.4948 6.4226 16.391L6.54718 12.851C6.56954 12.1706 5.73262 11.8316 5.27551 12.3367L2.90497 14.9688C2.83555 15.0461 2.78344 15.1372 2.75212 15.2363C2.7208 15.3353 2.711 15.4398 2.72337 15.5429C2.73574 15.646 2.77 15.7453 2.82385 15.8341C2.8777 15.9229 2.9499 15.9992 3.03562 16.0578H3.0353ZM7.67799 12.5465L9.55659 15.5492C9.61197 15.6374 9.6855 15.7128 9.77229 15.7703C9.85908 15.8278 9.95712 15.8661 10.0599 15.8827C10.1627 15.8994 10.2678 15.8939 10.3683 15.8667C10.4688 15.8395 10.5623 15.7911 10.6427 15.7249C11.3546 15.1364 11.9293 14.3993 12.3264 13.5652C12.3702 13.4713 12.3936 13.3692 12.3951 13.2656C12.3966 13.162 12.3762 13.0593 12.3352 12.9642C12.2942 12.869 12.2336 12.7836 12.1572 12.7136C12.0809 12.6435 11.9906 12.5904 11.8923 12.5577L8.52481 11.4633C7.87604 11.2557 7.31703 11.968 7.67799 12.5465ZM12.4162 8.32264C12.048 7.47563 11.4983 6.71983 10.8059 6.10862C10.728 6.04035 10.6365 5.98943 10.5374 5.95927C10.4383 5.9291 10.3339 5.92038 10.2311 5.93367C10.1284 5.94697 10.0297 5.98198 9.94151 6.03638C9.85335 6.09077 9.77778 6.16331 9.71983 6.24918L7.73932 9.18543C7.35919 9.75084 7.88946 10.4827 8.5443 10.2942L11.9508 9.3196C12.0506 9.29021 12.1431 9.23995 12.222 9.17215C12.301 9.10434 12.3646 9.02053 12.4087 8.92627C12.4529 8.83201 12.4765 8.72946 12.478 8.62539C12.4795 8.52133 12.4588 8.41813 12.4175 8.32264H12.4162ZM2.24342 1.70264C2.15293 1.74619 2.0724 1.80793 2.00686 1.88401C1.94132 1.96009 1.89217 2.04887 1.86249 2.14481C1.83281 2.24074 1.82324 2.34176 1.83437 2.44156C1.8455 2.54136 1.87709 2.6378 1.92718 2.72484L5.25315 8.48874C5.62689 9.13401 6.61427 8.86887 6.61427 8.12459V1.46945C6.61517 1.36888 6.59512 1.26922 6.55538 1.17683C6.51564 1.08443 6.4571 1.00133 6.38347 0.93281C6.30984 0.864292 6.22275 0.811862 6.12774 0.778862C6.03274 0.745861 5.93189 0.733012 5.83165 0.741135C4.58693 0.84005 3.37082 1.16592 2.24342 1.70264Z" fill="white"/>
</svg>
