<svg width="15" height="16" viewBox="0 0 15 16" fill="none" xmlns="http://www.w3.org/2000/svg">
<path d="M7.83491 4.24233C5.8033 4.24233 4.16459 5.88104 4.16459 7.91265C4.16459 9.94427 5.8033 11.583 7.83491 11.583C9.86653 11.583 11.5052 9.94427 11.5052 7.91265C11.5052 5.88104 9.86653 4.24233 7.83491 4.24233ZM7.83491 10.2988C6.52203 10.2988 5.44872 9.22873 5.44872 7.91265C5.44872 6.59658 6.51884 5.52646 7.83491 5.52646C9.15099 5.52646 10.2211 6.59658 10.2211 7.91265C10.2211 9.22873 9.1478 10.2988 7.83491 10.2988ZM12.5115 4.09219C12.5115 4.56815 12.1281 4.94828 11.6554 4.94828C11.1794 4.94828 10.7993 4.56496 10.7993 4.09219C10.7993 3.61943 11.1826 3.2361 11.6554 3.2361C12.1281 3.2361 12.5115 3.61943 12.5115 4.09219ZM14.9424 4.96106C14.8881 3.81428 14.6261 2.79848 13.786 1.96155C12.9491 1.12463 11.9333 0.862693 10.7865 0.805194C9.60459 0.738112 6.06204 0.738112 4.88013 0.805194C3.73655 0.859498 2.72074 1.12144 1.88062 1.95836C1.0405 2.79528 0.78176 3.81109 0.724261 4.95787C0.65718 6.13978 0.65718 9.68233 0.724261 10.8642C0.778566 12.011 1.0405 13.0268 1.88062 13.8638C2.72074 14.7007 3.73335 14.9626 4.88013 15.0201C6.06204 15.0872 9.60459 15.0872 10.7865 15.0201C11.9333 14.9658 12.9491 14.7039 13.786 13.8638C14.6229 13.0268 14.8849 12.011 14.9424 10.8642C15.0095 9.68233 15.0095 6.14298 14.9424 4.96106ZM13.4155 12.1324C13.1663 12.7585 12.684 13.2409 12.0547 13.4932C11.1123 13.8669 8.87628 13.7807 7.83491 13.7807C6.79355 13.7807 4.5543 13.8638 3.61516 13.4932C2.98906 13.244 2.50672 12.7617 2.25436 12.1324C1.88062 11.1901 1.96687 8.95402 1.96687 7.91265C1.96687 6.87129 1.88382 4.63204 2.25436 3.6929C2.50352 3.0668 2.98587 2.58445 3.61516 2.3321C4.5575 1.95836 6.79355 2.04461 7.83491 2.04461C8.87628 2.04461 11.1155 1.96155 12.0547 2.3321C12.6808 2.58126 13.1631 3.06361 13.4155 3.6929C13.7892 4.63524 13.703 6.87129 13.703 7.91265C13.703 8.95402 13.7892 11.1933 13.4155 12.1324Z" fill="white"/>
</svg>
