<svg width="64" height="37" viewBox="0 0 64 37" fill="none" xmlns="http://www.w3.org/2000/svg">
<path d="M15.3419 0.332275H16.3339C18.0246 0.513675 19.942 0.635552 21.2113 2.00172C22.5473 3.25167 22.854 5.51349 22.0033 7.15175C21.5553 8.01907 20.766 8.58311 20.006 9.1103C21.1553 9.45609 22.31 10.1052 22.8966 11.2559C23.7447 12.931 23.454 15.0001 22.654 16.627C21.6646 18.6168 19.5286 19.6853 17.4726 19.7647C15.6033 19.8185 13.6166 19.9291 11.9099 18.9597C10.2486 18.1406 9.32324 16.3238 8.77124 14.5551C10.3792 14.3595 11.9819 14.1073 13.5899 13.9032C14.0059 14.8527 14.1926 16.1395 15.2619 16.525C16.6326 17.2052 18.3553 16.0517 18.454 14.4729C18.6086 13.3052 18.3953 11.8455 17.2593 11.3211C16.4246 10.8024 15.4486 11.1114 14.5846 11.3381C14.6833 10.1448 14.7019 8.94874 14.7846 7.75547C15.8859 7.85468 17.1393 7.42102 17.5846 6.25326C17.7046 5.57585 17.7793 4.72837 17.262 4.20685C16.6513 3.40756 15.4619 3.40473 14.6833 3.90641C14.0219 4.41376 13.8406 5.30942 13.5926 6.08036C12.0833 5.69489 10.5312 5.54184 9.01124 5.20455C9.40324 4.04246 9.92058 2.88037 10.8033 2.0414C12.0086 0.799945 13.7499 0.547687 15.3419 0.332275Z" fill="white"/>
<path d="M31.7391 0.332275H33.0458C34.2325 0.491 35.4645 0.64689 36.5125 1.31013C37.7951 2.05557 38.4965 3.48125 38.9711 4.88993C37.3525 5.01465 35.7525 5.32076 34.1418 5.52483C33.8911 4.81057 33.6911 3.90641 32.9311 3.62581C32.2351 3.46141 31.3871 3.48409 30.9071 4.12749C29.7605 5.36611 29.8885 7.24246 29.6378 8.83537C30.6911 7.82067 31.9738 6.9165 33.4618 6.9902C36.3125 6.7181 38.9871 9.2747 39.2351 12.2564C39.3178 13.6283 39.3391 15.0993 38.6831 16.3351C37.7738 18.4467 35.6165 19.7817 33.4591 19.7817C31.8965 19.8129 30.2618 19.8752 28.8111 19.1553C26.8005 18.2766 25.5391 16.1225 25.0858 13.9372C24.3978 10.6465 24.5045 7.03555 25.9151 3.9716C27.0245 1.67293 29.4111 0.530681 31.7391 0.332275ZM31.2031 10.4481C30.1045 11.0377 29.7018 12.4407 29.8431 13.668C29.8111 15.3232 31.2805 17.055 32.9178 16.5363C34.7365 16.0743 35.0138 13.5858 34.5205 11.9843C34.1471 10.5303 32.4671 9.65167 31.2031 10.4481Z" fill="white"/>
<path d="M47.2058 0.332275H48.5525C50.1312 0.542018 51.7898 1.03236 52.8885 2.33901C54.5205 4.23803 54.7552 6.94201 54.8912 9.39091C54.9098 12.0099 54.8032 14.813 53.4992 17.1174C52.4965 18.8634 50.5178 19.6995 48.6591 19.7675C47.3098 19.793 45.8965 19.9121 44.6165 19.3537C43.2218 18.7755 42.0404 17.6219 41.4404 16.1565C40.3364 13.5999 40.4564 10.706 40.5338 7.95955C40.6778 5.8111 41.1391 3.4359 42.7764 1.98754C43.9791 0.819786 45.6538 0.553356 47.2058 0.332275ZM46.7685 3.97727C45.7258 4.55264 45.6005 5.92164 45.3951 7.01004C45.2005 8.97709 45.2245 10.9696 45.3871 12.9395C45.5871 13.9826 45.7178 15.19 46.5311 15.9241C46.9951 16.3549 47.6431 16.2954 48.2191 16.3323C49.0538 15.8391 49.6058 14.9718 49.7951 13.9826C50.1445 12.1034 50.1525 10.1704 50.0458 8.26283C49.9365 7.10924 49.8431 5.91881 49.3338 4.87009C48.8911 3.89791 47.6591 3.50393 46.7685 3.97727Z" fill="white"/>
<path d="M56.4618 2.97954C57.0245 0.422937 61.1738 0.343575 61.7738 2.92285C62.1791 4.5271 62.2191 6.40912 61.3711 7.86882C60.9018 8.71913 59.9045 8.74464 59.0858 8.80983C58.2591 8.77298 57.3125 8.59158 56.8698 7.74978C56.0725 6.33543 56.1365 4.53844 56.4618 2.97954ZM58.9205 2.43817C58.3551 2.53737 58.2938 3.22329 58.2191 3.7023C58.1151 4.7992 58.0885 5.94712 58.4271 7.00434C58.6218 7.48618 59.2111 7.50319 59.6111 7.32179C60.2938 6.37511 60.0831 5.09397 60.0751 3.98574C60.0831 3.28848 59.7604 2.21709 58.9205 2.43817Z" fill="white"/>
<path d="M56.7392 16.9077C56.9125 16.4457 57.0645 15.9752 57.2005 15.499C59.2592 16.3777 61.3605 17.4547 62.7952 19.3169C63.6672 20.4195 63.9819 22.0407 63.3925 23.3701C62.7765 24.7277 61.5979 25.6574 60.4378 26.4595C56.7338 28.7355 52.4885 29.6312 48.3738 30.6685C46.2298 31.0455 44.0991 31.5529 41.9258 31.6889C41.9284 30.5807 41.9258 29.4724 41.9258 28.3642C45.8325 28.1233 49.6885 27.2418 53.4378 26.0854C55.5845 25.2833 57.9178 24.4358 59.3872 22.4801C60.0965 21.6241 60.1205 20.2806 59.5178 19.3509C58.8432 18.2512 57.7365 17.6163 56.7392 16.9077Z" fill="white"/>
<path d="M1.58982 18.3192C2.94182 17.1685 4.54982 16.4174 6.16849 15.7966C6.38449 16.3918 6.60582 16.9871 6.83516 17.5794C5.73115 18.2625 4.61915 19.1043 4.20582 20.4563C4.48315 21.1933 4.81649 21.9585 5.46715 22.4064C7.21116 23.747 9.31516 24.3989 11.3498 25.0565C14.4058 25.9465 17.5258 26.5445 20.6485 27.1001C24.9045 27.701 29.1685 28.367 33.4725 28.3585C33.4752 26.998 33.4858 25.6375 33.4485 24.2799C35.3712 26.3376 37.2858 28.4039 39.2458 30.4248C37.4218 32.5336 35.2218 34.2767 33.6378 36.6122H33.5232C33.4672 35.3282 33.4618 34.0414 33.4805 32.7546C30.3765 32.834 27.2778 32.5817 24.2165 32.0546C20.3072 31.55 16.4618 30.609 12.6725 29.5008C9.00849 28.2735 5.25115 27.0122 2.12048 24.569C1.05648 23.7215 -0.0261839 22.5339 0.000482746 21.0204C0.0271494 19.881 0.81115 18.9995 1.58982 18.3192Z" fill="white"/>
</svg>
