<svg width="46" height="46" viewBox="0 0 46 46" fill="none" xmlns="http://www.w3.org/2000/svg">
<g opacity="0.6">
<circle cx="23" cy="23" r="23" fill="white"/>
<path d="M35.6582 34.0657L30.79 28.8711C30.5703 28.6366 30.2725 28.5064 29.96 28.5064H29.1641C30.5117 26.6672 31.3125 24.3538 31.3125 21.8373C31.3125 15.8507 26.7666 11 21.1562 11C15.5459 11 11 15.8507 11 21.8373C11 27.8238 15.5459 32.6746 21.1562 32.6746C23.5146 32.6746 25.6826 31.8201 27.4062 30.3821V31.2313C27.4062 31.5648 27.5283 31.8826 27.748 32.1171L32.6162 37.3117C33.0752 37.8014 33.8174 37.8014 34.2715 37.3117L35.6533 35.8372C36.1123 35.3474 36.1123 34.5555 35.6582 34.0657ZM21.1562 28.5064C17.7041 28.5064 14.9062 25.5261 14.9062 21.8373C14.9062 18.1536 17.6992 15.1682 21.1562 15.1682C24.6084 15.1682 27.4062 18.1484 27.4062 21.8373C27.4062 25.5209 24.6133 28.5064 21.1562 28.5064Z" fill="black"/>
</g>
</svg>
