<svg width="17" height="14" viewBox="0 0 17 14" fill="none" xmlns="http://www.w3.org/2000/svg">
<path d="M15.132 3.58486C15.1423 3.73014 15.1423 3.87545 15.1423 4.02073C15.1423 8.45195 11.7696 13.5578 5.60531 13.5578C3.7062 13.5578 1.94201 13.0077 0.458008 12.053C0.727836 12.0841 0.98725 12.0945 1.26746 12.0945C2.83445 12.0945 4.27697 11.5653 5.42888 10.6624C3.95526 10.6313 2.72032 9.66616 2.29483 8.33782C2.5024 8.36893 2.70994 8.38969 2.92789 8.38969C3.22883 8.38969 3.5298 8.34817 3.80998 8.27556C2.2741 7.9642 1.12215 6.61513 1.12215 4.98584V4.94435C1.56837 5.19341 2.08729 5.34907 2.63727 5.36981C1.73441 4.76789 1.14291 3.74052 1.14291 2.57822C1.14291 1.95558 1.30892 1.38481 1.59951 0.886678C3.24956 2.92069 5.72983 4.249 8.511 4.39431C8.45912 4.14525 8.42798 3.88583 8.42798 3.62639C8.42798 1.77915 9.92236 0.274414 11.78 0.274414C12.7451 0.274414 13.6168 0.67914 14.2291 1.33293C14.9866 1.18765 15.713 0.907441 16.3565 0.523479C16.1074 1.30182 15.5781 1.95561 14.8829 2.37068C15.5574 2.29807 16.2112 2.11124 16.8131 1.85182C16.3565 2.51596 15.7857 3.10746 15.132 3.58486Z" fill="white"/>
</svg>
