<svg width="17" height="10" viewBox="0 0 17 10" fill="none" xmlns="http://www.w3.org/2000/svg">
<path d="M5.36972 5.61235C5.36972 5.98818 5.06504 6.29285 4.68922 6.29285C4.31339 6.29285 4.00872 5.98818 4.00872 5.61235C4.00872 5.23653 4.31339 4.93186 4.68922 4.93186C5.06504 4.93186 5.36972 5.2365 5.36972 5.61235ZM12.8931 4.93214C12.5175 4.93214 12.2129 5.23667 12.2129 5.61235C12.2129 5.98801 12.5175 6.29257 12.8931 6.29257C13.2688 6.29257 13.5734 5.98804 13.5734 5.61235C13.5733 5.23667 13.2688 4.93214 12.8931 4.93214ZM15.4312 8.89287C13.6519 10.2871 11.0791 9.97495 9.68483 8.19553L8.8052 9.5109L7.93398 8.20649C6.56319 9.92122 4.08308 10.2478 2.31517 8.94631C0.496282 7.60729 0.107251 5.04731 1.44627 3.22842C1.2741 2.64562 1.00302 2.09674 0.644897 1.60577L3.20851 1.60435C4.88536 0.560956 6.82953 0.0279159 8.80404 0.0702057C10.7313 0.0358466 12.6271 0.562108 14.2609 1.58502L16.9929 1.58712C16.6315 2.08184 16.3591 2.63576 16.1879 3.22402C17.5166 5.00568 17.1807 7.52207 15.4312 8.89287ZM8.00942 5.64756C8.00922 3.8429 6.54612 2.38009 4.74146 2.38028C2.9368 2.38048 1.47401 3.84359 1.47418 5.64825C1.47438 7.4529 2.93748 8.91572 4.74214 8.91553C6.54555 8.9134 8.00704 7.45211 8.00942 5.6487V5.64756ZM8.82125 5.3507C8.97551 3.26542 10.6814 1.63434 12.7715 1.57363C11.5198 1.03246 10.1675 0.763284 8.80401 0.783926C7.43877 0.770687 6.08496 1.03392 4.82415 1.55776C6.9351 1.60268 8.66587 3.24506 8.82125 5.3507ZM15.9683 4.53388C15.3438 2.84061 13.465 1.97419 11.7717 2.59861C10.0785 3.22306 9.21204 5.10191 9.83646 6.79515V6.79606C10.4622 8.48856 12.3408 9.35413 14.0339 8.73008C15.7266 8.10529 16.5926 6.22678 15.9683 4.53388ZM6.71061 5.61216V5.61542C6.70899 6.73211 5.80239 7.63605 4.6857 7.63443C3.569 7.63281 2.66507 6.72621 2.66669 5.60952C2.66831 4.49282 3.57491 3.58889 4.6916 3.59051C5.80634 3.5938 6.70879 4.49742 6.71061 5.61216ZM6.01461 5.61216V5.60977C6.01316 4.87765 5.4185 4.28532 4.68638 4.28677C3.95426 4.28821 3.36192 4.88288 3.36337 5.61497C3.36482 6.34709 3.95948 6.93942 4.69157 6.93797C5.42205 6.93476 6.01296 6.3426 6.01461 5.61216ZM14.914 5.61216V5.61352C14.9135 6.73021 14.0078 7.63503 12.891 7.63443C11.7743 7.63383 10.8695 6.72814 10.8701 5.61142C10.8707 4.49473 11.7764 3.58991 12.8931 3.59051C14.0087 3.59238 14.9126 4.49654 14.914 5.61216ZM14.2183 5.61193C14.218 4.87981 13.6243 4.28651 12.8922 4.28677C12.1601 4.28702 11.5668 4.88072 11.567 5.61284C11.5673 6.34496 12.161 6.93823 12.8931 6.938C13.6247 6.9367 14.2173 6.34377 14.2183 5.61219V5.61193Z" fill="white"/>
</svg>
